/* XPM */
static char *_989_3f17d50eb4f95c93b252228a71744b1edd1aa64e435f11c683e4a82c14db04aa[] = {
/* columns rows colors chars-per-pixel */
"50 50 204 2 ",
"   c #15126D",
".  c #1C186C",
"X  c #241F73",
"o  c #252466",
"O  c #262666",
"+  c #252468",
"@  c #25216D",
"#  c #26246D",
"$  c #262370",
"%  c #252472",
"&  c #262573",
"*  c #232474",
"=  c #272475",
"-  c #262478",
";  c #27247B",
":  c #3C3B77",
">  c #3D3C76",
",  c #3B3A7E",
"<  c #3C3C7C",
"1  c #615B67",
"2  c #625F68",
"3  c #6D6966",
"4  c #6C6867",
"5  c #6E6A67",
"6  c #6A656C",
"7  c #6B696A",
"8  c #716D6A",
"9  c #726F6A",
"0  c #726E6B",
"q  c #716D6C",
"w  c #74706D",
"e  c #757170",
"r  c #777370",
"t  c #767571",
"y  c #787570",
"u  c #787471",
"i  c #7C7974",
"p  c #7E7A77",
"a  c #837F7C",
"s  c #262582",
"d  c #282483",
"f  c #27248D",
"g  c #3C3B81",
"h  c #3D3C82",
"j  c #3D3B84",
"k  c #3D3A87",
"l  c #3D3A89",
"z  c #3E3C8F",
"x  c #2A3496",
"c  c #3E3C90",
"v  c #3D3C99",
"b  c #3B46A2",
"n  c #0864CB",
"m  c #0D7DC7",
"M  c #0163D2",
"N  c #0268D7",
"B  c #0367D9",
"V  c #0166DA",
"C  c #056BDA",
"Z  c #196FD4",
"A  c #0B7FD2",
"S  c #1D75D7",
"D  c #1C7ED5",
"F  c #1275DA",
"G  c #337DD6",
"H  c #327DD8",
"J  c #1B5CEA",
"K  c #215EF4",
"L  c #3658FF",
"P  c #3659FF",
"I  c #3D5FFF",
"U  c #1278E7",
"Y  c #3E61FD",
"T  c #1E8FBB",
"R  c #2895B4",
"E  c #2E9EB2",
"W  c #2A9CB7",
"Q  c #2595BD",
"!  c #33A2AB",
"~  c #32A3AB",
"^  c #35AAB3",
"/  c #36ABB4",
"(  c #1B88C0",
")  c #3985DB",
"_  c #3A86DC",
"`  c #3089DB",
"'  c #3D94D7",
"]  c #5699E7",
"[  c #4FA0E2",
"{  c #65A1E9",
"}  c #68A4EA",
"|  c #7CB6F5",
" . c #858180",
".. c #8B8585",
"X. c #8D8988",
"o. c #8F8B8C",
"O. c #8A8790",
"+. c #918F92",
"@. c #969593",
"#. c #989795",
"$. c #9BAEB5",
"%. c #99ADB6",
"&. c #9AACB6",
"*. c #9BADB7",
"=. c #9AAEB7",
"-. c #9CAFB6",
";. c #9BADB9",
":. c #9CAEB8",
">. c #9CAEBA",
",. c #A5A4A2",
"<. c #AEADAB",
"1. c #B3B2AE",
"2. c #BAB9B5",
"3. c #BCBBB7",
"4. c #BBBAB8",
"5. c #BCBBB9",
"6. c #BDBBBC",
"7. c #C2C1BF",
"8. c #8AB9ED",
"9. c #8BB9ED",
"0. c #89B8EE",
"q. c #B0BBF3",
"w. c #A5C7EC",
"e. c #A4C7EF",
"r. c #B2CFEF",
"t. c #A5C8F2",
"y. c #AACCF2",
"u. c #BACDF7",
"i. c #B9C4FA",
"p. c #BCCEFC",
"a. c #AFD0F3",
"s. c #B4D2F6",
"d. c #C4C2C3",
"f. c #C5C4C2",
"g. c #C9C8C6",
"h. c #CAC9C7",
"j. c #CACAC8",
"k. c #CACACA",
"l. c #D1D0CE",
"z. c gray82",
"x. c gray84",
"c. c #C2DCF7",
"v. c #C8D9F7",
"b. c #C3D7FA",
"n. c #CADDFB",
"m. c #CCDDFB",
"M. c #CBDBFC",
"N. c #CBDBFD",
"B. c #C9DCFC",
"V. c #C9DCFD",
"C. c #CADDFD",
"Z. c #CADDFE",
"A. c #CCDCFD",
"S. c #CDDCFD",
"D. c #CCDCFE",
"F. c #CDDDFE",
"G. c #CCDCFF",
"H. c #CCE2F9",
"J. c #D8E8F8",
"K. c #DCE9F9",
"L. c #E4E4E4",
"P. c #E6E6E4",
"I. c #E8E8E6",
"U. c #E2E0EB",
"Y. c #E6E6EE",
"T. c gray92",
"R. c #ECEDE8",
"E. c #EEEDEB",
"W. c #EAE9EE",
"Q. c #ECECEC",
"!. c #EFEFEF",
"~. c #E6E6F0",
"^. c #E7E7F1",
"/. c #E6E6F2",
"(. c #E3EDF9",
"). c #E5EFFB",
"_. c #E1EFFC",
"`. c #F0EFF4",
"'. c #ECF3F9",
"]. c #EAF2FD",
"[. c #F4F4F4",
"{. c #F4F4F6",
"}. c #F5F5F7",
"|. c #F6F6F6",
" X c #F4F3F8",
".X c #F3F4F8",
"XX c #F5F4F9",
"oX c #F4F5F9",
"OX c #F5F8FD",
"+X c #F8F8F8",
"@X c gray98",
"#X c #FDFDFD",
"$X c #FEFEFC",
"%X c #FFFEFC",
"&X c #FEFFFD",
"*X c #FFFFFD",
"=X c #FFFDFE",
"-X c #FFFDFF",
";X c #FDFFFE",
":X c #FEFEFE",
">X c #FEFEFF",
",X c #FFFEFF",
"<X c #FEFFFF",
"1X c white",
/* pixels */
"1X*X1X:X1X1X,X1X1X1X1X1X1X1X1X1XA.*X1X1X1X1X:X1X<X1X1XM.C.*X1Xn.1X1X1X1X1X1X<X&X1X1X1X1X1X1X1X1XA.*X",
",X<X1X1X1X1X1X1X1X1X1X1X1X1X1X1X1X1X1X1X1X1X1X1X:X1X1XA.A.1X1X1X1X1X*X1X1X1X1X1X1X1X1X1X1X1X1X1X1X1X",
"C.B.1X1X1X1X1X1X1X1X1X1X1X1X1X1X1X1X1X1X=X1X1X*X<X1X1XA.1X:X1X1X1X1X1X1X1X1X1X:X1X1X1X1X1X1X1X1X1X1X",
"1X1X1X1X1X1X<X1X1X1X1X1X1X1X1X1X*X1X1X:X=X1X1X*X:X1X1X1X;X1X1X1X*X1X1X<X,X1X1X1X1X1X1X1X1X1X1X1X*X1X",
"1X1X1X1X1X1X1X1X1X1X1X1X1X1X1X1X1X1X=X=X1X1X1X1X1X1X1X1X1X:X1X<X1X1X1X1X1X1X1X1X1X1X1X1X1X1X1X1X1X1X",
"*X1X<X1X1X1X1X1X1X1X1X1X1X1X1X1X1X1X1X*X1X1X1X1X1X1X1X$X1X1X>X1X;.1X1X1X1X1X<X1X1X1X1X1X1X1X1X1X1X1X",
"1X1X1X1X>X1X1X1X1X1X1X1X1X1X1X1X:X1X1X1X1X1X=X1X1X1X1X:X1X1X1X*.*X-.1X1X1X1X1X=X1X1X1X1X1X1X1X1X:X1X",
"1X1X1X1X1X1X1X1X1X1X1X1X1X1X1X1X1X1X*X1X1X1X1X1X1X1X1X1X1X1X1X:X*.1X<X*X1X1X1X1X1X1X1X1X1X1X1X1X1X1X",
"1X1X1X1X1X1X1X1X1X1X1X1X1X1X1X1X1X1X1X1X1X1X1X1X1X1X1X1X%X:X1X:X,X1X1X*X1X1X1X:X1X1X1X1X1X1X1X1X1X1X",
"1X1X1X1X1X1X1X1X1X1X1X1X1X1X1X1X1X1X1X1X1X1X1X1X1X1X1X,X1X1X1X1X1X1X1X>X1X<X1X1X1X1X1X1X1X1X1X1X1X1X",
"1X1X1X1X1X1X1X1X1X1X1X1X1X1X1X1X1X1X1X1X1X1X1X1X:X1X1X1X1X1X1X1X&.:X1X1X1X1X1X1X1X1X1X1X1X1X1X1X1X1X",
"1X1X1X1X1X1X1X1X1X1X1X1X1X1X1X1X1X1X1X1X1X1X1X1X*X1X1X:X1X1X1X=.1X=.*X:X1X1X1X1X1X1X1X1X1X1X1X1X1X1X",
"1X1X1X1X1X1X1X1X1X1X1X1X1X1X1X1X1X1X1X1X1X1X1X1X$X1X:X1X1X1X1X<X*.1X1X1X1X1X1X:X1X1X1X1X1X1X1X1X1X1X",
"1X1X1X1X1X1X1X1X1X1X1X1X1X1X1X1X1X1X1X1X1X1X1X1X1X1X*X:X1X1X1X1X1X1X1X1X1X:X1X1X1X1X1X1X1X1X1X1X1X1X",
"1X1X1X1X1X1X1X1X1X1X1X1X1X1X1X1X1X1X1X1X1X1X1X1X1X1X1X1X1X1X1X1X:X1X1X:X1X<X1X1X1X1X1X1X1X1X1X1X1X1X",
"1X1X1X1X1X1X1X1X1X1X1X1X1X1X1X1X1X1X1X1X1X1X1X1X1X1X,XZ.1X<X1X1X<X1X:X1X1X1X1X1X1X1X1X1X1X1X1X1X1X1X",
"1X:X1X1X<X1X$X1X1X1X1X1X1X:X1X1X<X1X1X1X1X<X1X1X:X1X1XA.D.1X1X1X,X1X*X&X1X1X1X1X1X1X1X1X1X1X1X1X1X1X",
"1X1X1X1X1X1X1X:.1X1X1X1X,X<X1X1XA.<X1X1X1X1X1X1X1X1X1XF.G.1X,XA.1X1X1X1X1X1X1X1X1X1X1X1X1X1X1X1X1X1X",
"$X1X1X*X1X1X:.:X&.1X1X1X*X<X1X1XA.1X1X1X#X&X1X<X<X1X1X:XA.$.M.A.1X1X1X1X:X<X1X1X1X1X1X1X1X1X1X1X1X1X",
"A.A.1X1X1X1X<X:.1X1X1X*X1X1X*X1XN.1XA.1X1X1X<X1X1X1X,X1X:.A.A.*.1X:X1X1X1X<X1X1X1X1X1X1X1X1X1X1X1X1X",
"A.1X1X1X=X1X*X1X<X1XR.j.k.k.h.z.v.1XA.1X1X*X1X1X1X1X1X1X1X:.:.*X1X(.w.e.t._.1X1X:X:X1X1X1X1X1X1X1X1X",
":.1X*X1X1X1X1X:X,X1Xg.0 0 9 8  .!.1XM.1X1X1X<X1X1X1X1X1X=X1X1X1X1Xr.n M C a.1X1X1X1X1X1X1X1X1X1X1X1X",
"A.A.S.1X*X1X:X1X*X<XI.7.o.3 w p ,.f.$X1X*X;X1X1X1X1X:X1X,X<X1X1X1Xu.J Z ( [ | ].1X1X1X1X1X1X1X1X1X1X",
"1Xm.A.M.*X1X1X=X1X1X1X1X<.5 y u 7 +.`. X X X X{.XXoX}. X.X X{.XX+Xi.L H ! A U H.@X#X1X1X:X1X1X1X1X1X",
"1X1X1X1X1X1X1X1X<X1XC.*XT.x...2 @ X j l z k h : , v c h < : h g > b I ) ^ W Q ` } OX,X$X1X1X1X<X1X1X",
"1X1X1X1X1X1X1X1X,X1X1XA.[.L.X.1 .   * ; s - & + $ f d = # o % = O x Y _ / E R D ] b.1X1X1X1X1X1X1X1X",
"1X1X1X1X1X1X1X1X1X<XA.1X1.e t r 6 O.U.^.~.~.~.Y.Y./.~.Y.Y.Y.Y.Y.W.q.P G ~ m F c.'.:X1X:X<X1X1X1XA.A.",
"1X1X1X1X1X1X1X1X1X1XE.l.@.4 w i #.4.:X1X1X1X1X:X1X*X1X1X1X1X:X1X1Xp.K S T ' { ).1X1X1X<X1X1X1X1X*XD.",
"1X1X1X1X1X1X1X1X1X1Xh.0 8 q 8 a Q.#X1X1X:X1X1X*X1X1X1X1X1X1X1X1X,Xs.B V N y.1X=X1X1X1X1X1X1X*X1X1X:X",
"1X1X1X1X1X1X1X1X*X:XP.6.3.5.2.d.|.1X1X1X*X,X1X1X1X1X1X1X1X1X1X1X,XK.9.0.8.J.<X1X1X1X1X1X1X1X$X*X1X1X",
"1X1X1X1X1X1X1X1X:X*X1X1X,X1X:X1X1X1X1X1X*.1X*X1X1X1X:X1X1X1X1X1X1X1X1X1X1X1X1X1X1X:X1X1X:.*X*X&X:X1X",
"1X1X1X1X1X1X1X1X,X1X1X1X:X1X<X1X<X1X1X=.*X:.1X1X1X1X1X1X1X1X1X1X1X1X1X1X%X1X1X1X1X1X1X>.1X:.:X-X1X1X",
"1X*X1X:X1X1X,X1X1X1X1X1X1X1X1X1X1X=X1X1X*.1X1X1X1X1X*X1X1X1X1X1X:X:X*X1X1X1X1X1X1X<X1X1X%.1X1X*X1X1X",
",X<X1X1X1X1X1X1X1X1X1X1X1X1X1X1X1X1X1X:X1X1X1X1X:X1X1X1X1X1X=X1X:X1X1XA.1X:X1X1X*X1X1X1X1X1X1X<X1X1X",
"C.B.1X1X1X1X1X1X1X1X1X1X1X1X1X1X1X1X1X1X1X<X,X1X1X1X1X*X1X1X1X1X:XA.1XA.*X1X*X1X1X1X1X1X1X1X1X1X1X1X",
"1X1X1X1X1X1X<X1X1X1X1X1X1X1X1X1X1X*X1X1X1X<X1X$X1X1X=X=X1X1X1X1X,XV.1XA.1X1X1X1X:X<X*X1X1X1X1X1X1X1X",
"1X1X1X1X1X1X1X1X1X1X1X1X1X1X1X1X1X1X1X1X1X1X1X1X*X1X1X:X=X1X1X*X1XA.1X:X1X1X*X1X1X1X<X1X*X1X1X=X1X1X",
"*X1X<X1X1X1X1X1X1X1X1X1X1X1X1X1X1X1X1X1X1X*X1X1X1X1X1X1X=X1X1X*X1X1X:X<X1X1X1X1X<X1X1X1X<X:X1X1X1X1X",
"1X1X1X1X>X1X1X1X1X1X1X1X1X1X1X1X1X1X1X1X1X:X1XC.1X1X1X1X1X1X1X1X1X1X1X*X1X1X1X=X1X:X1X1X1X1X1X1X1X1X",
"1X1X1X1X1X1X1X1X1X1X1X1X1X1X1X1X1X1X1X1X1X1XD.1XA.*X1X1X1X1X:X1X*X1X1X1X1X1X1X1X1X1X1X1X1X1X1X1X1X1X",
"1X1X1X1X1X1X1X1X1X1X1X1X1X1X1X1X1X1X1X$X1X1X1XA.1X1X*X1X1X1X1X1X1X1X1X1X1X1X1X1X1X1X1X1X1X1X1X1X1X1X",
"1X1X1X1X1X1X1X1X1X1X1X1X1X1X1X1X1X1X1X:X=X1X1X1X:X1X1X1X1X1X=X1X1X1X1X1X1X1X1X1X1X1X1X1X1X1X1X1X1X1X",
"1X1X1X1X1X1X1X1X1X1X1X1X1X1X1X1X1X1X=X:.1X=X1X1X1X1X1X*X1X1X1X1X1X1X1X1X1X1X1X1X1X1X1X1X1X1X1X1X1X1X",
"1X1X1X1X1X1X1X1X1X1X1X1X1X1X1X1X1X1X-.:X:.*X1X$X1X1X=X=X1X1X1X1X1X1X1X1X1X1X1X1X1X1X1X1X1X1X1X1X1X1X",
"1X1X1X1X1X1X1X1X1X1X1X1X1X1X1X1X1X=X1X:.1X1X1X*X*X1X1X:X=X1X1X*X1X1X1X1X1X1X1X1X1X1X1X1X1X1X1X1X1X1X",
"1X1X1X1X1X1X1X1X1X1X1X1X1X1X1X1X1X1X1X1X1X1X1X1X1X1X1X1X=X1X1X*X1X1X1X1X1X1X1X1X1X1X1X1X1X1X1X1X1X1X",
"1X1X1X1X1X1X1X1X1X1X1X1X1X1X1X1X1X1X1X1X1X1X1X1X1X1X1X1X1X1X1X1X1X1X1X1X1X1X1X1X1X1X1X1X1X1X1X1X1X1X",
"1X1X1X1X1X1X1X1X1X1X1X1X1X1X1X1X*X1X1X1X1X1X1X=XA.*X1X1X1X1X:X1X1X1X1X1X1X1X1X1X1X1X1X1X1X1X1X1X1X1X",
"1X1X1X1X1X1X1X1X1X1X1X1X1X1X1X1X1X1X1X1X*X1X1XA.A.1X1X1X1X1X1X1X1X1X1X1X1X1X1X1X1X1X1X1X1X1X1X1X1X1X",
"1X1X1XA.1X1X1X1X1X1X1X1X1X1X1X1X1X1X1X1XD.1X1XA.A.1X1X1X1X1X1X1X1X1X1XA.1X1X1X1X1X1X1X1X1X1X1X1X1X1X"
};
