/* XPM */
static char *d60179beee1f440596c31653b6db49ebDbxNUBZsANkPkmcV[] = {
/* columns rows colors chars-per-pixel */
"50 50 27 1 ",
"  c #9BAEB5",
". c #9BADB7",
"X c #9AAEB7",
"o c #9CAFB6",
"O c #9BADB9",
"+ c #9CAEB8",
"@ c #9CAEBA",
"# c #CADDFB",
"$ c #CCDDFB",
"% c #CBDBFC",
"& c #CBDBFD",
"* c #C9DCFC",
"= c #CADDFD",
"- c #CADDFE",
"; c #CCDCFD",
": c #CDDCFD",
"> c #CCDCFE",
", c #CDDDFE",
"< c #FEFEFC",
"1 c #FEFFFD",
"2 c #FFFFFD",
"3 c #FFFDFE",
"4 c #FDFFFE",
"5 c #FEFEFE",
"6 c #FFFEFF",
"7 c #FEFFFF",
"8 c white",
/* pixels */
"8888888888888888%<88888<888%*88*8888888<88888888%<",
"888888888888888888888888888%:888888888888888888888",
"**888888888888888888888<888%8888888888888888888888",
"8888888888888888<888888<88888888888888888888888888",
"88888888888888888888888888888888888888888888888888",
"888888888888888888888888888<8888X88888888888888888",
"8888888888888888888888888888888.8.8888888888888888",
"888888888888888888<8888888888888X88888888888888888",
"8888888888888888888888888888<883888<88888888888888",
"88888888888888888888888888888888888388888888888888",
"88888888888888888888888888888888X88888888888888888",
"888888888888888888888888<888888O8.<388888888888888",
"88888888888888888888888848888888X88888888888888888",
"88888888888888888888888888888888888888888888888888",
"88888888888888888888888888888888888888888888888888",
"888888888888888888888888888%8888888888888888888888",
"8888888888888<8888888888888%%888888888888888888888",
"8888888+88888888%8888888888%;88;888888888888888888",
"888888X3X8888488*88888888888;.%;888888888888888888",
"%%88888X88888888:8*888888888o;;.888888888888888888",
"%888888888888848%8;8888888888++8888888888888888888",
"o88888888888888888;8888888888888888888888888888888",
";%:88838848838888888888888888888888888888888888888",
"8%:%8883888888888888888888888888888888888888888888",
"8888888888%88888888888888888888888888888888<888888",
"88888888888%88888888888888888888888888888%88888888",
"8888888888%8888888888888888888888888888888888888%*",
"8888888888888888888888888888888888888888888888888%",
"88888888888888888<88888<88888888888888888888888888",
"88888888<88888888888<88888888888888888888888888888",
"88888888888888388888.88888888888888888888888o8<888",
"8888888888888888888X8.888888888888888888888O8o8888",
"88888888888888888888X8888888888883<888888888.88888",
"888888888888888888888888<8888888888%88888888888888",
"*%8888888888888888888888888888888;8%<8<88888888888",
"88888888888888888<88888<883388888;8%88888888888888",
"8888888888888888888888888888888<8%8888888888<88888",
"<8888888888888888888888888888888888888884888888888",
"88888888888888888888888%88888888888888888888888888",
"8888888888888888888888:8%<88883<888888888888888888",
"88888888888888888888888:88<88888888888888888888888",
"88888888888888888888888888888888888888888888888888",
"8888888888888888883X8888888<8888888888888888888888",
"888888888888888888.8.88<88888888888888888888888888",
"8888888888888888888o8888<8888888888888888888888888",
"8888888888888888888888888888888<888888888888888888",
"88888888888888888888888888888888888888888888888888",
"8888888888888888<8888888:<888888888888888888888888",
"88888888888888888888888;;8888888888888888888888888",
"888%8888888888888888*88;;8888888888%88888888888888"
};
