/* XPM */
static char *_4130_f3a82c15c04b70672a4f0b66f48f0f200f3728f6960fb7e404583ed1a91d170a[] = {
/* columns rows colors chars-per-pixel */
"50 50 108 2 ",
"   c #000000",
".  c #070208",
"X  c #090109",
"o  c #110313",
"O  c #19031A",
"+  c #220524",
"@  c #28052D",
"#  c #2C0531",
"$  c #320735",
"%  c #350738",
"&  c #38073E",
"*  c #3F0744",
"=  c #450A4A",
"-  c #48094F",
";  c #4D0A53",
":  c #5D0D66",
">  c #640E6C",
",  c #63136C",
"<  c #6A1072",
"1  c #731C7D",
"2  c #761080",
"3  c #84128E",
"4  c #881395",
"5  c #8E1298",
"6  c #8C2097",
"7  c #9413A1",
"8  c #9819A4",
"9  c #9D14A8",
"0  c #9D1BAA",
"q  c #9623A2",
"w  c #A524B2",
"e  c #B126BF",
"r  c #BF1AD0",
"t  c #B626C6",
"y  c #BB30CB",
"u  c #B93AC9",
"i  c #C319D2",
"p  c #CD2CDE",
"a  c #C230D3",
"s  c #CB3EDB",
"d  c #D41BE5",
"f  c #EE1DFF",
"g  c #D225E1",
"h  c #D52FE7",
"j  c #DA24EB",
"k  c #DC36EE",
"l  c #ED22FF",
"z  c #E530F7",
"x  c #E03CF3",
"c  c #E631F9",
"v  c #EA33FD",
"b  c #D141E1",
"n  c #E445F7",
"m  c #E54BF7",
"M  c #E640FA",
"N  c #EA43FD",
"B  c #EA4CFE",
"V  c #E653F9",
"C  c #EB51FE",
"Z  c #EB5DFF",
"A  c #E364F4",
"S  c #EB64FE",
"D  c #EB6CFF",
"F  c #EC73FF",
"G  c #EE7DFF",
"H  c #F07DFF",
"J  c #9BADB7",
"K  c #9CAEB8",
"L  c #A2B5BC",
"P  c #ACBAC5",
"I  c #B2B9C3",
"U  c #EF85FF",
"Y  c #EF8AFE",
"T  c #F087FE",
"R  c #F18DFF",
"E  c #EE95FF",
"W  c #EE9EFF",
"Q  c #F493FF",
"!  c #F49CFE",
"~  c #F6A3FF",
"^  c #F4A8FF",
"/  c #F8A8FF",
"(  c #FAB4FF",
")  c #FABEFF",
"_  c #BFCEEB",
"`  c #CACFEC",
"'  c #C9D9F3",
"]  c #C7D7F8",
"[  c #CBDCFD",
"{  c #D1DFFC",
"}  c #EDC6F2",
"|  c #EACCFE",
" . c #FCC5FE",
".. c #FECDFF",
"X. c #F0DDF3",
"o. c #FFD2FF",
"O. c #FEDCFF",
"+. c #DCE2FA",
"@. c #E9E8E6",
"#. c #ECECEC",
"$. c #F0E9F1",
"%. c #FFE3FF",
"&. c #FFEBFF",
"*. c #F5F5F5",
"=. c #F7F5F8",
"-. c #FEF4FE",
";. c #F7F9F8",
":. c #FFFFFF",
/* pixels */
":.:.:.:.:.:.:.:.:.:.:.:.:.:.:.:.[ :.:.:.:.:.:.;.;.-.Y ] [ :.:.[ :.:.:.:.:.:.:.:.:.:.:.:.:.:.:.:.[ :.",
":.:.:.:.:.:.:.:.:.:.:.:.:.:.:.:.:.:.:.:.:.:.:.:.:...D ` [ :.:.:.:.:.:.:.:.:.:.:.:.:.:.:.:.:.:.:.:.:.",
"[ [ :.:.:.:.:.:.:.:.:.:.:.:.:.:.:.:.:.:.:.:.:.:.;.Q p ` :.:.:.:.:.:.:.:.:.:.:.:.:.:.:.:.:.:.:.:.:.:.",
":.:.:.:.:.:.:.:.:.:.:.:.:.:.:.:.:.:.:.:.:.:.:.:.#.B , $.:.:.:.:.:.:.:.:.:.:.:.:.:.:.:.:.:.:.:.:.:.:.",
":.:.:.:.:.:.:.:.:.:.:.:.:.:.:.:.:.:.:.:.:.:.:.:. .9 : X.:.:.:.:.:.:.:.:.:.:.:.:.:.:.:.:.:.:.:.:.:.:.",
":.:.:.:.:.:.:.:.:.:.:.:.:.:.:.:.:.:.:.;.:.:.:.#.B . 1 ) :.:.:.:.J :.:.:.:.:.:.:.:.:.:.:.:.:.:.:.:.:.",
":.:.:.:.:.:.:.:.:.:.:.:.:.:.:.:.:.:.:.:.:.;.;.&.j   i  .:.:.:.J :.K :.:.:.:.:.:.:.:.:.:.:.:.:.:.:.:.",
":.:.:.:.:.:.:.:.:.:.:.:.:.:.:.:.:.:.:.:.:.:.-.F #   > Y *.:.:.;.J :.:.:.:.:.:.:.:.:.:.:.:.:.:.:.:.:.",
":.:.:.:.:.:.:.:.:.:.:.:.:.:.:.;.;.:.:.:.:.:.Q 8       S -.:.:.;.:.:.:.;.:.:.:.:.:.:.:.:.:.:.:.:.:.:.",
":.:.:.:.:.:.:.:.:.:.:.:.:.:.:.:.:.:.:.;.*.&.0         1 ..:.:.:.:.:.:.:.:.:.:.:.:.:.:.:.:.:.:.:.:.:.",
":.:.:.:.:.:.:.:.:.:.:.:.:.:.:.:.:.:.-.:.:.H &           A o.:.:.K ;.:.:.:.:.:.:.:.:.:.:.:.:.:.:.:.:.",
":.:.:.:.:.:.:.:.:.:.:.:.:.:.:.:.:.:.:.*.-.k               G -.K :.L ;.:.:.:.:.:.:.:.:.:.:.:.:.:.:.:.",
":.:.:.:.:.:.:.:.:.:.:.:.:.:.:.:.:.:.:.;.( <               6 %.*.P *.:.:.:.:.:.:.:.:.:.:.:.:.:.:.:.:.",
":.:.:.:.:.:.:.:.:.:.:.:.:.:.:.:.:.:.:.#.F X               . / :.:.:.:.:.:.:.:.:.:.:.:.:.:.:.:.:.:.:.",
":.:.:.:.:.:.:.:.:.:.:.:.:.:.:.:.:.:.:.} m                   b o.;.:.:.;.:.:.:.:.:.:.:.:.:.:.:.:.:.:.",
":.:.:.:.:.:.:.:.:.:.:.:.:.:.:.:.:.:.*.Y 3                   $ G &.:.:.;.:.:.:.:.:.:.:.:.:.:.:.:.:.:.",
":.:.:.:.:.:.:.:.:.:.:.:.:.:.:.:.:.;.-.F o                     N ..:.*.:.:.:.:.:.:.:.:.:.:.:.:.:.:.:.",
":.:.:.:.:.:.:.J :.:.:.:.:.:.:.-.{ :.o.Z                       ; ! :.:.:.:.:.:.:.:.:.:.:.:.:.:.:.:.:.",
":.:.:.:.:.:.K :.J :.:.:.:.:.:.:.' :.( N .                       A *.:.:.:.:.:.:.:.:.:.:.:.:.:.:.:.:.",
"[ [ :.:.:.:.:.K :.:.:.:.:.:.:.:.] :.! l                       h ( #.:.:.:.:.:.:.:.:.:.:.:.:.:.:.:.:.",
"[ :.:.:.:.:.:.:.:.:.:.:.:.:.:.:.] :.E ;                       C &.:.:.:.:.:.:.:.:.:.:.:.:.:.:.:.:.:.",
"K :.:.:.:.:.:.:.:.:.:.:.:.:.:.:.*.%.Z o                     X F =.:.:.:.:.:.:.:.:.:.:.:.:.:.:.:.:.:.",
"[ [ [ :.;.:.:.:.:.:.:.:.:.:.:.:.*.Q u                       4 ~ -.:.:.:.:.:.:.:.:.:.:.:.:.:.:.:.:.:.",
":.[ [ [ :.:.:.:.:.:.:.:.:.:.:.:.*.G 4                       : R -.:.:.:.:.:.:.:.:.:.:.:.:.:.:.:.:.:.",
":.:.:.:.:.:.:.:.:.:.[ :.:.:.:.*.:.Y l +                       A &.#.:.:.:.:.:.:.:.:.:.:.:.:.:.:.:.:.",
":.:.:.:.:.:.:.:.:.:.:.] ;.:.:.:.:. .S d                       0  .-.:.:.;.-.:.:.:.[ :.:.:.:.:.:.:.:.",
":.:.:.:.:.:.:.:.:.:.[ :.:.:.:.:.;.;.) v .                       n  .%.:.;.:.:.:.:.:.:.:.:.:.:.:.[ [ ",
":.:.:.:.:.:.:.:.:.:.:.:.:.:.:.:.:.:.-.! -                       * F o.*.:.:.:.:.:.:.:.:.:.:.:.:.:.[ ",
":.:.:.:.:.:.:.:.:.:.;.:.:.:.:.:.:.:.#...t                       > F o.:.:.:.:.:.:.:.:.:.:.:.:.:.:.:.",
":.:.:.:.:.:.:.:.:.:.:.:.:.:.:.:.:.:.*.o.B                       x U -.:.:.:.:.:.:.:.:.:.:.:.:.:.:.:.",
":.:.:.:.:.:.:.:.:.:.:.:.:.:.:.:.:.:.:.%.V                       S o.#.;.*.:.:.:.:.:.:.:.K :.:.:.:.:.",
":.:.:.:.:.:.:.:.:.:.:.:.:.:.:.:.:.:.:.I Z 7                 X s ..:.:.:.:.:.;.:.:.:.:.K :.K :.:.:.:.",
":.:.:.:.:.:.:.:.:.:.:.:.:.:.:.:.:.;.:.#.F :                 z ) &.=.:.:.:.:.:.:.:.:.:.:.J :.:.:.:.:.",
":.:.:.:.:.:.:.:.:.:.:.:.:.:.:.:.:.:.:.*.G O               = U o.:.=.:.[ :.:.:.:.:.:.:.:.:.:.:.:.:.:.",
"[ [ :.:.:.:.:.:.:.:.:.:.:.:.:.:.:.:.:.*.R .             5 S ..:.:.+.:.[ :.:.:.:.:.:.:.:.:.:.:.:.:.:.",
":.:.:.:.:.:.:.:.:.:.:.:.:.:.:.:.:.:.:.=.^ .           % C  .:.*.:.[ ;.[ :.:.:.:.:.:.:.:.:.:.:.:.:.:.",
":.:.:.:.:.:.:.:.:.:.:.:.:.:.:.:.:.:.;.:.O.z i         f ( :.;.:.:.[ :.:.:.:.:.:.:.:.:.:.:.:.:.:.:.:.",
":.:.:.:.:.:.:.:.:.:.:.:.:.:.:.;.:.:.;.:.:.U g         v o.#.:.;.:.:.:.:.:.:.:.:.:.:.:.:.:.:.:.:.:.:.",
":.:.:.:.:.:.:.:.:.:.:.:.:.:.:.:.:.:.:.:.:. .S         B %.*.:.:.:.:.:.;.:.:.:.:.:.:.:.:.:.:.:.:.:.:.",
":.:.:.:.:.:.:.:.:.:.:.:.:.:.:.:.:.:.:.:.;.&.F i     X Z -.:.:.:.:.:.:.:.:.:.:.:.:.:.:.:.:.:.:.:.:.:.",
":.:.:.:.:.:.:.:.:.:.:.:.:.:.:.:.:.:.:.;.;.:...D ;   O Q :.*.:.:.:.:.:.:.:.:.:.:.:.:.:.:.:.:.:.:.:.:.",
":.:.:.:.:.:.:.:.:.:.:.:.:.:.:.:.:.:.:.:.:.:.:...c   q O.:.:.;.:.:.:.:.:.:.:.:.:.:.:.:.:.:.:.:.:.:.:.",
":.:.:.:.:.:.:.:.:.:.:.:.:.:.:.:.:.:.:.J :.:.*.-.M   H ;.:.*.:.:.:.:.:.:.:.:.:.:.:.:.:.:.:.:.:.:.:.:.",
":.:.:.:.:.:.:.:.:.:.:.:.:.:.:.:.:.:.K :.J :.:.#.t @ %.;.:.:.:.;.:.:.:.:.:.:.:.:.:.:.:.:.:.:.:.:.:.:.",
":.:.:.:.:.:.:.:.:.:.:.:.:.:.:.:.:.:.:.K :.:.:.@.w a @.:.:.:.:.:.:.:.:.:.:.:.:.:.:.:.:.:.:.:.:.:.:.:.",
":.:.:.:.:.:.:.:.:.:.:.:.:.:.:.:.:.:.:.:.:.:.:.@.y Z *.:.:.:.:.;.:.:.:.:.:.:.:.:.:.:.:.:.:.:.:.:.:.:.",
":.:.:.:.:.:.:.:.:.:.:.:.:.:.:.:.:.:.:.:.:.:.:.#.Z Q ;.:.:.:.:.:.:.:.:.:.:.:.:.:.:.:.:.:.:.:.:.:.:.:.",
":.:.:.:.:.:.:.:.:.:.:.:.:.:.:.:.:.:.:.:.:.:.:.;.Q %.:.;.:.:.:.:.:.:.:.:.:.:.:.:.:.:.:.:.:.:.:.:.:.:.",
":.:.:.:.:.:.:.:.:.:.:.:.:.:.:.:.:.:.:.:.:.:.:.[ | ;.:.;.:.:.:.:.:.:.:.:.:.:.:.:.:.:.:.:.:.:.:.:.:.:.",
":.:.:.[ :.:.:.:.:.:.:.:.:.:.:.:.:.:.:.:.[ :.:.[ +.:.:.:.:.:.:.:.:.:.:.[ :.:.:.:.:.:.:.:.:.:.:.:.:.:."
};
