/* XPM */
static char *_271_574fa7de1cb5ab1e0d5bff0ed01642218c202b813ed36a3b610152c2d06c04aa[] = {
/* columns rows colors chars-per-pixel */
"50 50 76 1 ",
"  c black",
". c #000100",
"X c #010101",
"o c #000002",
"O c #000103",
"+ c #010005",
"@ c #000105",
"# c #010204",
"$ c #010206",
"% c #000306",
"& c #010207",
"* c #020307",
"= c #040710",
"- c #040612",
"; c #06141F",
": c #051320",
"> c #071321",
", c #051222",
"< c #061323",
"1 c #071323",
"2 c #041421",
"3 c #061421",
"4 c #041423",
"5 c #071522",
"6 c #182C37",
"7 c #172A38",
"8 c #162C39",
"9 c #182B39",
"0 c #182B3A",
"q c #192C3A",
"w c #1A2C3A",
"e c #542B89",
"r c #562A89",
"t c #9E4FF6",
"y c #9F50F7",
"u c #9F50F9",
"i c #A04FF6",
"p c #A150F7",
"a c #A251F8",
"s c #99ADB6",
"d c #9BADB7",
"f c #98AFB7",
"g c #9CAFB6",
"h c #9BADB9",
"j c #9CAEB8",
"k c #9DAEB8",
"l c #DD8BF7",
"z c #CADDFB",
"x c #CCDDFB",
"c c #CBDBFC",
"v c #CBDBFD",
"b c #C9DBFF",
"n c #C9DCFC",
"m c #C9DCFD",
"M c #CADDFD",
"N c #CCDCFD",
"B c #CDDCFD",
"V c #CCDCFE",
"C c #F8CFF7",
"Z c #F9CFF7",
"A c #F8CFF9",
"S c #F6D0F7",
"D c #F9D0F8",
"F c #FDFDFD",
"G c #FDFFFC",
"H c #FEFEFC",
"J c #FEFFFD",
"K c #FFFFFD",
"L c #FFFDFE",
"P c #FDFFFE",
"I c #FCFFFF",
"U c #FEFEFE",
"Y c #FEFEFF",
"T c #FFFEFF",
"R c #FEFFFF",
"E c white",
/* pixels */
"EKEUEETEEEEEEEEENKEEEEUEREEcMKEzEEEEEERJEEEEEEEENK",
"TREEEEEEEEEEEEEEEEEEEEEEUEENNEEEEEKEEEEEEEEEEEEEEE",
"MnEEEEEEEEEEEEEEEEEELEEKREENEUEEEEEEEEEUEEEEEEEEEE",
"EEEEEEREEEEEEEEEKEEULEEKUEEEPEEEKEERTEEEEEEEEEEEKE",
"EEEEEEEEEEEEEEEEEELLEEEEEEEEEUEREEEEEEEEEEEEEEEEEE",
"KEREEEEEEEEEEEEEEEEKEEEEEEEHEEYEhEEEEEREEEEEEEEEEE",
"EEEEYEEEEEEEEEEEUEEEEELEEEEUEEEdKgEEEEELEEEEEEEEUE",
"EEEEEEEEEEEEEEEEEEKEEEEEEEEEEEEUdERKEEEEEEEEEEEEEE",
"EEEEEEEEEEEEEEEEEEEEEEEEEEEEHUEPREEKEEEUEEEEEEEEEE",
"EEEEEEEEEEEEEEEEEEEEEEEEEEEEEEEEEKEUEREEEEEEEEEEEE",
"EEEEEEEEEEEEEEEEEEEEEEEEUEEEEUEEdUEEEEKEEEEEEEEEEE",
"EEEEEEEEEEEEEEEEEEEEEEEEHEEEEE$kEfK$ETTREEEEEEEEEE",
"EEEEEEEEEEEEEEEEEEEEEEEEHEEEEE333EE$3EEREEEEEEEEEE",
"EEEEEEEEEEEEEEEEEEEEEEEETEKEEEE933KE-2EEEEEEEEEEEE",
"EEEEEEEEEEEEEEEEEEEEEEEEEUETKEEE9:TU=3EEEEEEEEEEEE",
"EEEEEEEEEEEEEEEEEEEEEEEEEEEbEEEE03F<=3EEEEEEEEEEEE",
"EUEEREHEEETEEUEEJEKEEE<33;3093EE32933EEEEEEEEEEEEE",
"EEEEEEEjEEEEEREENRT343939993993$33883ETEEEEEEEEEEE",
"HEEKEEjUhEEEKREENK33039,3339399&33y9yEEJEEEEEEEEEE",
"NNEEEERjEEEEEEEUv3q9>35399938>3O3:9q3EEEEEEEEEEEEE",
"NEEELEKEREEREEUK3933TKKE997363$<$199HEEEEEEEEEEEEE",
"jEKEEEEUEEEEEE393:NEEKRKT3933$3+3$EEREEEEEEEEEEEEE",
"NNBEKEUEKRRELy93:3EEKEEE99>w0%3333EKEEUEEEEEEEEEEE",
"ExNcKEELEKTyCS993EERUEEE:393$3$<>3.ET$3EEEEEEEEEEE",
"EEEEEEEKREalCyCiEEEEEUEU99<#EEU33$  & 3EEEEGEEEEEE",
"UEEEERTKEylCyCCEEEEEEEEpyy93eEEE$o+& XEEENEEEEEEEE",
"EUKEEEEEplCpCEEEETEEEER$$$ye$>EREE$$ EEEKEEEUEEENN",
"EEREEEEulCyDUETEEEEKT9@3:2$$$$:3$EEEREETEEEJEEEEKV",
"EEKEEEylCyCEEEEEEPEE89333$<$>333$$EEEEKEEUEEEEKEEU",
"EEEKEylCyCREEEEEUKEE9$$;3$3&3333 $$$EEUEEUEEEEUEEE",
"ETKEylCyCKEKEEPEEEEE$$3;$$3EE:2    $3EEEEEEEjETKUE",
"EEEElCDZKEEEEEKEREE$#399EEKEEEE    rtEEEEEEhEjEEEE",
"EKEHuACPEEEREEEKEY3:$993EEKEEEEE$* orEEEEREEsEEKEE",
"ERLECyREEEEEEEEEE#ye$32EUEEEEELE$$ $EEEEKEEEEEEREE",
"MmEETEEEEEKEEUEEE#r$$IEEEEEKEEEEU. NKEKEEEEEEEEEEE",
"EEEUEEEEEEEEUEEK$$$EEPEUEELLEEEEE$ENEEREURKEEEEEEE",
"EETEEEEETEEUELE33@EEEEEEKEEULEEKE EUEEEEEEREKEELEE",
"KEREEEEEEEEEEE39UKEREKEEEEEELEEKE*#RUEEKREEERUEEEE",
"EEKEUEEEEEEEER9$REUEEUEMEEEEEEEEUTRKEEEEEUEEEEEEEE",
"EETEEEEEEEEEEE3;EEEEEENENKEEEEUEKTEEEEEEEEEEEEEEEE",
"EEEEEEEEEEEEEEEEEEEHEEENEEKEEEEEEEEEEEEEEEEEEEEEEE",
"EEEEEEEEEEEEEEEEEEEULEEEUEEEEELEEEEEEEEEEEEEEEEEEE",
"EEEEEEEEEEEEEEEEEELjELEEEEEKEEEEEEEEEEEEEEEEEEEEEE",
"EEEEEEEEEEEEEEEEEEgUjKEHEELLEEEEEEEEEEEEEEEEEEEEEE",
"EEEEEEEEEEEEEEEEELEjEEEKKEEULEEKEEEEEEEEEEEEEEEEEE",
"EEEEEEEEEEEEEEEEEEEEEEEEEEEELEEKEEEEEEEEEEEEEEEEEE",
"EEEEEEEEEEEEEEEEEEEEEEEEEEEEEEEEEEEEEEEEEEEEEEEEEE",
"EEEEEEEEEEEEEEEEKEEEEEELNKEEEEUEEEEEEEEEEEEEEEEEEE",
"EEEEEEEEEEEEEEEEEEEEKEENNEEEEEEEEEEEEEEEEEEEEEEEEE",
"EEENEEEEEEEEEEEEEEEEVEENNEEEEEEEEEENEEEEEEEEEEEEEE"
};
