/* XPM */
static char *c941e8b7483b4d2096daa9a1b57a7d0176QyRQqgRiFP7PNd[] = {
/* columns rows colors chars-per-pixel */
"50 50 118 2 ",
"   c black",
".  c #1B0A02",
"X  c #241103",
"o  c #3E2006",
"O  c #193B20",
"+  c #193D21",
"@  c #1A3C21",
"#  c #1A3C23",
"$  c #41150A",
"%  c #40140B",
"&  c #41150C",
"*  c #43140C",
"=  c #42160D",
"-  c #41140E",
";  c #5E2514",
":  c #5F2416",
">  c #5F2517",
",  c #602515",
"<  c #602517",
"1  c #622417",
"2  c #18530F",
"3  c #185311",
"4  c #1B5312",
"5  c #195412",
"6  c #185512",
"7  c #195414",
"8  c #1A6312",
"9  c #1B6413",
"0  c #29781D",
"q  c #28781F",
"w  c #297A1E",
"e  c #277A20",
"r  c #297920",
"t  c #2A7920",
"y  c #2A7A21",
"u  c #297922",
"i  c #376A3F",
"p  c #76451A",
"a  c #76451C",
"s  c #76451D",
"d  c #77461D",
"f  c #78441C",
"g  c #54782E",
"h  c #55792F",
"j  c #567A30",
"k  c #366940",
"l  c #376A41",
"z  c #366B41",
"x  c #386840",
"c  c #396941",
"v  c #935F2F",
"b  c #935F30",
"n  c #946031",
"m  c #AA6B35",
"M  c #A96C36",
"N  c #A96D37",
"B  c #AA6D36",
"V  c #AB6C37",
"C  c #AA6D37",
"Z  c #5C9767",
"A  c #5B9A65",
"S  c #5B9966",
"D  c #5C9865",
"F  c #5D9965",
"G  c #5D9966",
"H  c #5E9866",
"J  c #5C9A67",
"K  c #5E9A67",
"L  c #5D9868",
"P  c #93A31E",
"I  c #95A31C",
"U  c #95A21E",
"Y  c #A98261",
"T  c #DFA97A",
"R  c #DFA97B",
"E  c #9BADB7",
"W  c #9AAEB7",
"Q  c #9CAEB8",
"!  c #9CAEBA",
"~  c #B9B7AB",
"^  c #BAB6AA",
"/  c #BAB6AB",
"(  c #BCB5AB",
")  c #C9A281",
"_  c #C8A182",
"`  c #CAA183",
"'  c #C9A283",
"]  c #CAA384",
"[  c #F2D0B4",
"{  c #F2D0B5",
"}  c #F3D1B5",
"|  c #F1D2B5",
" . c #F4D1B5",
".. c #F4D2B6",
"X. c #CADDFB",
"o. c #CCDDFB",
"O. c #CBDBFC",
"+. c #C9DCFC",
"@. c #CADDFD",
"#. c #CCDCFD",
"$. c #CDDCFD",
"%. c #CCDCFE",
"&. c #CDDDFE",
"*. c #F8F7F2",
"=. c #F8F7F3",
"-. c #FAF7F2",
";. c #F7F8F2",
":. c #F8F8F0",
">. c #F9F8F3",
",. c #FEFEFC",
"<. c #FEFFFD",
"1. c #FFFFFD",
"2. c #FDFFFE",
"3. c #FEFEFE",
"4. c #FEFEFF",
"5. c #FFFEFF",
"6. c #FEFFFF",
"7. c white",
/* pixels */
"7.7.7.7.7.7.7.7.7.7.7.7.7.7.7.7.O.,.7.7.7.7.7.,.7.7.7.O.+.7.7.+.7.7.7.7.7.7.,.7.7.7.7.7.7.7.7.7.O.7.",
"7.7.7.7.7.7.7.7.7.7.7.7.7.7.7.7.7.7.7.7.7.7.7.7.7.7.7.O.$.7.7.7.7.7.7.7.7.7.7.7.7.7.7.7.7.7.7.7.7.7.",
"+.+.7.7.7.7.7.7.7.7.7.7.7.7.7.7.7.7.7.7.7.7.7.,.7.7.7.O.7.7.7.7.7.7.7.7.7.,.7.7.7.7.7.7.7.7.7.7.7.7.",
"7.7.7.7.7.7.7.7.7.7.7.7.7.7.7.7.,.7.7.7.7.7.7.,.7.7.7.7.7.7.7.7.7.7.7.7.7.7.7.7.7.7.7.7.7.7.7.7.,.7.",
"7.7.7.7.7.7.7.7.7.7.7.7.7.7.7.7.7.7.7.7.7.7.7.7.7.7.7.7.7.7.7.7.7.7.7.7.7.7.7.7.7.7.7.7.7.7.7.7.7.7.",
"7.7.7.7.7.7.7.7.7.7.7.7.7.7.7.7.7.7.7.7.7.7.7.7.7.7.7.,.7.7.7.7.Q 7.7.7.7.7.7.7.7.7.7.7.7.7.7.7.7.7.",
"7.7.7.7.7.7.7.7.7.7.7.7.7.7.7.7.7.7.7.7.7.7.7.7.7.7.7.7.7.7.7.E 7.E 7.1 7.7.7.7.7.7.7.7.7.7.7.7.7.7.",
"7.7.7.7.7.7.7.7.7.7.7.7.7.7.7.7.7.7.,.7.7.7.7.7.7.7.7.7.7.7.7.7.E 7.7.> 7.7.7.7.7.7.7.7.7.7.7.7.7.7.",
"7.7.7.7.7.7.7.7.7.7.7.7.7.7.7.7.7.7.7.7.7.7.7.7.7.7.7.3.7.*.*./ *.7.7.< 7.7.7.7.7.7.7.7.7.7.7.7.7.7.",
"7.7.7.7.7.7.7.7.7.7.7.7.7.7.7.7.7.7.7.7.7.7.*./ 7.^ 7.7.*.*./ / *.^ 7.< > 7.7.7.7.7.7.7.7.7.7.7.7.7.",
"7.7.7.7.7.7.7.7.7.7.7.7.7.7.7.7.7.7.7.7.7.7.^ / *.^ *.7.*.^ *.T R R *.h < < < 7.7.7.7.7.7.7.7.7.7.7.",
"7.7.7.7.7.7.7.7.7.7.7.7.7.7.7.7.7.7.7.7.7.7.7./ ^ ^ *.7.*.*.^ {   } ^ h 7.< < < 7.7.7.7.7.3.7.7.7.7.",
"7.7.7.7.7.7.7.7.7.7.7.7.7.7.7.7.7.7.7.7.7.7.7.o . X 7.;.*./ *.{ } } :.j 7.7.7.> : : 7.7.7.7.7.7.7.7.",
"7.7.7.7.7.7.7.7.7.7.7.7.7.7.7.7.7.7.7.7.7.7.7.I I P *./ / / / _  .} / j 7.7.7.> 1 : 7.7.7.7.7.7.7.7.",
"7.7.7.7.7.7.7.7.7.7.7.7.7.7.7.7.7.7.7.7.7.7.7.l  .} =.l l l / _ ) } ^ h 7.,.7.1 < < 7.7.7.7.7.7.7.7.",
"7.7.7.7.7.7.7.7.7.7.7.7.7.7.7.7.7.7.7.7.7.7.} } } } _ l l c / =.7./ / g 7.7.7.> < : 7.7.7.7.7.7.7.7.",
"7.7.7.7.7.7.7.7.7.7.,.7.7.7.7.7.7.7.7.7.7.} } } ) _ ) l l i l *.*.7.^ h 7.7.$ & < < 7.7.7.7.7.3.7.7.",
"7.7.7.7.7.7.7.Q 7.7.7.7.7.7.7.7.O.7.7.q } } } ) _ _ K Z K Z K ^ *.7.*.h 7.7.- & & & 7.7.3.7.3.7.7.7.",
"7.7.7.7.7.7.E 7.E 7.7.7.7.7.7.7.$.7.q r { { x l l K L K D K K S *.7.7.h 7.7.& & - - 7.7.7.7.7.7.7.7.",
"O.O.7.7.7.7.7.E 7.7.7.7.7.7.7.7.O.r r r 7.7.l i l l K K S D K K 7.7.7.h 7.7.& & * o 7.7.7.7.7.7.7.7.",
"O.7.7.7.7.7.7.7.7.7.7.7.7.7.7.7.r r 8 7.7.7.l l l l l l c l ) ) ) 7.7.h 7.7.& & * 3.7.7.7.7.7.7.7.7.",
"E 7.7.7.7.7.7.7.7.7.7.7.7.7.7.e r 9 $.7.7.7.l l l l l 7.7.7.7._ } r e h 7.7.. 7.3.3.7.7.7.7.7.7.7.7.",
"+.$.O.7.7.,.7.7.7.7.7.7.7.) Y _ 9 7.7.7.7.7.l l l l l 7.7.7.7.7.9 9 9 g 7.7.} } 3.7.7.7.3.7.7.7.7.7.",
"7.o.$.O.7.7.7.7.7.7.7.7.7.{ Y ) Y 7.7.7.7.i l l l l l 7.7.7.7.7.7.7.9 j 8 _ {  .7.7.7.7.7.3.7.7.7.7.",
"7.7.7.7.7.7.7.7.7.7.O.7._ 7.7.7._ 7.7.7.l l K K S K i 7.7.,.7.7.7.7.7.g 7.7.. 7.7.7.7.7.7.7.7.7.7.7.",
"7.7.7.7.7.7.7.7.7.7.7.O.7.7.7.7.7.7.7.M s p l S S D K p 7.7.7.7.7.7.7.g 7.7.& & o O.7.7.7.7.7.7.7.7.",
"7.7.7.7.7.7.7.7.7.7.O.7.7.7.7.7.7.7.V V M a l K l S K Z a 7.7.7.7.7.7.g 7.7.$ & - - 7.7.7.7.7.7.O.$.",
"7.7.7.7.7.7.7.7.7.7.7.7.7.7.7.7.7.M V V V f l c K l S K a p 7.7.7.7.7.h 7.7.% $ - - 7.7.7.7.7.7.7.O.",
"7.7.7.7.7.7.7.7.7.7.7.7.7.7.7.7.7.M V V s s p l K i K Z a v b 7.7.7.7.h 7.7.% - - o 5.5.7.7.7.2.7.7.",
"7.7.7.7.7.7.7.7.7.7.7.7.7.2.7.7.m M N s p p O c l Z l l s b b b 7.7.7.h 7.7.7.- - 1 5.5.7.7.7.7.7.7.",
"7.7.7.7.7.7.7.7.7.7.7.7.7.7.7.7.V N s p s + + l l l K l s p b b b 7.7.h 7.7.7.1 1 : 5.3.E 7.7.7.7.7.",
"7.7.7.7.7.7.7.7.7.7.7.7.7.7.7.N V p s s 7.O O l l l l l s s s b v v 7.h 7.7.3.: : 1 3.E 7.E 7.7.7.7.",
"7.7.7.7.7.7.7.7.7.7.7.7.7.q q r r s 7.7.E + O l l l l l 7.7.q r s s 7.h 7.7.7.< < < 7.,.E 7.7.,.7.7.",
"7.7.7.7.7.7.7.7.7.7.7.7.7.7.r r q q 7.7.7.7.7.l l l l l 7.7.6 r r r 7.h 7.7.7.< < 1 7.7.7.7.7.7.7.7.",
"+.O.7.7.7.7.7.7.7.7.7.7.7.7.6 6 t t 7.7.7.7.7.l i l l l 7.4 4 6 r r q h 7.; < < 7.7.7.7.7.7.7.7.7.7.",
"7.7.7.7.7.7.7.7.7.,.7.7.7.4 6 4 q q 7.3.7.7.7.7.7.7.7.7.6 6 3 4 7 r q h < < < 7.7.7.,.7.7.7.7.7.7.7.",
"7.7.7.7.7.7.7.7.7.7.7.7.7.2 4 7.3.7.7.7.7.7.7.7.7.7.7.7.4 6 4 7.7.$.7.< < 7.7.7.7.7.7.7.7.7.7.7.7.7.",
",.7.7.7.7.7.7.7.7.7.7.7.3 6 7.7.3.7.7.7.7.7.7.7.7.7.7.7.3 4 7.7.7.7.7.< 7.7.7.7.7.7.7.7.7.7.7.7.7.7.",
"7.7.7.7.7.7.7.7.7.7.7.q 3 3 7.7.7.7.7.7.7.7.7.O.7.7.7.7.6 2 7.7.7.7.7.> 7.7.7.7.7.7.7.7.7.7.,.7.7.7.",
"7.7.7.7.7.7.7.7.7.7.7.e 3 7.7.7.7.7.7.7.7.7.O.7.$.7.7.r 6 7.7.7.7.7.7.> 7.7.7.7.7.7.7.7.7.7.7.7.7.7.",
"7.7.7.7.7.7.7.7.7.7.q q 6 7.7.7.7.7.7.7.7.7.7.$.7.7.7.r r r 7.7.7.7.7.7.7.7.7.7.7.7.7.7.7.7.7.7.7.7.",
"7.7.7.7.7.7.7.7.7.7.q q 6 7.7.7.7.7.7.7.7.7.7.7.7.7.7.7.e r e 7.7.7.7.7.7.7.7.7.7.7.7.7.7.7.7.7.7.7.",
"7.7.7.7.7.7.7.7.7.7.7.7.7.7.7.7.7.7.7.E 7.7.7.7.7.7.7.7.7.7.7.7.7.7.7.7.7.7.7.7.7.7.7.7.7.7.7.7.7.7.",
"7.7.7.7.7.7.7.7.7.7.7.7.7.7.7.7.7.7.E 7.E 7.7.,.7.7.7.7.7.7.7.7.7.7.7.7.7.7.7.7.7.7.7.7.7.7.7.7.7.7.",
"7.7.7.7.7.7.7.7.7.7.7.,.7.7.7.7.7.7.7.E 7.7.7.7.7.7.7.7.7.7.7.7.7.7.7.7.7.7.7.7.7.7.7.7.7.7.7.7.7.7.",
"7.7.7.7.7.7.7.7.7.7.7.7.7.7.7.7.7.7.7.7.7.7.7.7.7.7.7.7.7.7.7.7.7.7.7.7.7.7.7.7.7.7.7.7.7.7.7.7.7.7.",
"7.7.7.7.7.7.7.7.7.7.7.7.7.7.7.7.7.7.7.7.7.7.7.7.7.7.7.7.7.7.7.7.7.7.7.7.7.7.7.7.7.7.7.7.7.7.7.7.7.7.",
"7.7.7.7.7.7.7.7.7.7.7.7.7.7.7.7.,.7.7.7.7.7.7.7.O.7.7.7.7.7.7.7.7.7.7.7.7.7.7.7.7.7.7.7.7.7.7.7.7.7.",
"7.7.7.7.7.7.7.7.7.7.7.7.7.7.7.7.7.7.7.7.7.7.7.+.$.7.7.7.7.7.7.7.7.7.7.7.7.7.7.7.7.7.7.7.7.7.7.7.7.7.",
"7.7.7.+.7.7.7.7.7.7.7.7.7.7.7.7.7.7.7.7.$.7.7.$.$.7.7.7.7.7.7.7.7.7.7.O.7.7.7.7.7.7.7.7.7.7.7.7.7.7."
};
