/* XPM */
static char *_8828_a4754d543e916f53bbcee0b5059d8dbea8e883cc907a7f29151ca0568ce06576[] = {
/* columns rows colors chars-per-pixel */
"50 50 172 2 ",
"   c #27190C",
".  c #291B0D",
"X  c #2C1D11",
"o  c #301E11",
"O  c #352314",
"+  c #3C2515",
"@  c #362518",
"#  c #3C291C",
"$  c #3B271C",
"%  c #3B2E25",
"&  c #3E342A",
"*  c #412716",
"=  c #422915",
"-  c #462D19",
";  c #45301F",
":  c #402E20",
">  c #4A2E23",
",  c #443125",
"<  c #4A3223",
"1  c #40352B",
"2  c #483429",
"3  c #58382D",
"4  c #51382C",
"5  c #593D31",
"6  c #594336",
"7  c #5B4539",
"8  c #634135",
"9  c #694137",
"0  c #684438",
"q  c #634B3E",
"w  c #74493C",
"e  c #544C44",
"r  c #5F554C",
"t  c #644C40",
"y  c #774B40",
"u  c #6A5144",
"i  c #645349",
"p  c #745A4D",
"a  c #7A5A4B",
"s  c #665F59",
"d  c #685E54",
"f  c #6F6158",
"g  c #73665D",
"h  c #6C6761",
"j  c #726D67",
"k  c #7A7571",
"l  c #676975",
"z  c #8C584D",
"x  c #88554B",
"c  c #945C4F",
"v  c #825A51",
"b  c #975E55",
"n  c #9A5F57",
"m  c #826658",
"M  c #886658",
"N  c #976656",
"B  c #A6685F",
"V  c #8C7062",
"C  c #9A7C6C",
"Z  c #9B7568",
"A  c #877E77",
"S  c #807D78",
"D  c #9F7F70",
"F  c #AC6C63",
"G  c #B16E65",
"H  c #A7796C",
"J  c #B37067",
"K  c #B67268",
"L  c #B9756C",
"P  c #C97D75",
"I  c #A08071",
"U  c #A78778",
"Y  c #A98879",
"T  c #CC837A",
"R  c #D4857C",
"E  c #DA877F",
"W  c #878380",
"Q  c #8A8683",
"!  c #8C8885",
"~  c #928E8B",
"^  c #95908C",
"/  c #9E9C97",
"(  c #BE9A8B",
")  c #A09C99",
"_  c #B89F9B",
"`  c #BA9896",
"'  c #B8A09E",
"]  c #8B93A8",
"[  c #9AAEB6",
"{  c #9CAEB8",
"}  c #BEB2AC",
"|  c #B3B2B0",
" . c #BEB6B1",
".. c #C18F8B",
"X. c #C39D8E",
"o. c #D29580",
"O. c #E58E85",
"+. c #E48E88",
"@. c #E59086",
"#. c #E6938B",
"$. c #E9958B",
"%. c #E2988F",
"&. c #EA998D",
"*. c #E79F93",
"=. c #EC9E93",
"-. c #C3A08D",
";. c #D3AD9C",
":. c #D4A092",
">. c #D7B09F",
",. c #E1A08C",
"<. c #E5A594",
"1. c #ECA394",
"2. c #EAA996",
"3. c #E4AC9E",
"4. c #ECAA9C",
"5. c #F1A395",
"6. c #F5AA9A",
"7. c #F9AF9C",
"8. c #FBB19E",
"9. c #C3B1AA",
"0. c #CBB4AA",
"q. c #D5B9AE",
"w. c #DCBCAF",
"e. c #D1B6AB",
"r. c #C0B6B4",
"t. c #C1B9B7",
"y. c #C3BDBB",
"u. c #D9BBB0",
"i. c #F3AFA3",
"p. c #E1B7A7",
"a. c #EEB6A9",
"s. c #E6BCAC",
"d. c #EBBAA9",
"f. c #ECB1A3",
"g. c #F3B3A4",
"h. c #FDB6A2",
"j. c #FDB9A5",
"k. c #F2B5A9",
"l. c #F5BBAC",
"z. c #FCBDAA",
"x. c #F7BFB0",
"c. c #C4C1BE",
"v. c #EAC1AF",
"b. c #FDC2AE",
"n. c #EBC4B3",
"m. c #E6C2B4",
"M. c #F3C5B4",
"N. c #FBC4B2",
"B. c #FDC9B7",
"V. c #F4CBBA",
"C. c #FCCDBB",
"Z. c #FCD0BE",
"A. c #C5C5C5",
"S. c #C9C5C2",
"D. c #CCC8C7",
"F. c #C6C6C8",
"G. c #CECAC9",
"H. c #D0CCCA",
"J. c #D2D1CF",
"K. c #D8D8D6",
"L. c gray87",
"P. c #D2D2D2",
"I. c #FCD1C0",
"U. c #DFDFE1",
"Y. c #CBDCFD",
"T. c #E3E3E3",
"R. c #ECECEC",
"E. c #F1F1EF",
"W. c #EFEFF1",
"Q. c #F3F3F4",
"!. c #F9F9F7",
"~. c #FFFFFF",
/* pixels */
"~.~.~.~.~.~.~.~.~.~.~.~.~.~.~.~.Y.~.~.~.~.~.~.~.~.~.~.Y.Y.~.~.Y.~.~.!.!.!.!.!.~.~.~.~.~.~.~.~.~.Y.~.",
"~.~.~.~.~.~.~.~.~.~.~.~.~.~.~.~.~.~.~.~.~.~.~.~.~.~.~.Y.Y.~.~.~.~.W.0.C.C.B.u.R.~.~.~.~.~.~.~.~.~.~.",
"Y.Y.~.~.~.~.~.~.~.~.~.~.~.Q.c.c.c.!.~.~.~.~.~.~.~.~.~.Y.~.~.y.y.y.9.B.h.6.+.l.9.T.~.~.~.~.~.~.~.~.~.",
"~.~.~.~.~.~.~.~.~.~.~.~.9.9.B.B.Z.9.9.~.~.~.~.~.~.~.~.~. .} Z.Z.I.I.B.5.O.y $.l.e.R.~.~.~.~.~.~.~.~.",
"~.~.~.~.~.~.~.~.~.~.~.q.I.j.h.h.C.j.I.w.w.y.~.~.~.w.q.m.V.I.I.I.I.N.5.@.> P 6.$.g.w.!.~.~.~.~.~.~.~.",
"~.~.~.~.~.~.~.~.~.~.q.h.j.h.h.h.j.h.h.I.Z.C.V.V.V.Z.Z.N.B.I.I.Z.h.5.@.O.. O.O.=.h.h.V.~.~.~.~.~.~.~.",
"~.~.~.~.~.~.~.~.~.} j.h.h.h.h.h.h.h.h.Z.I.C.I.I.Z.Z.B.h.h.C.h.h.6.+.@.@ O.O.O.=.h.h.h.V.~.~.~.~.~.~.",
"~.~.~.~.~.~.~.~. .I.B.T @.8.8.h.8.8.$.C.M.%.%.N.B.B.h.h.B.z.8.7.&.4.3.5 C.C.O.O.O.O.8.g.~.~.~.~.~.~.",
"~.~.~.~.~.~.~.T.Z.N.%.o F O.O.&.$.&.h.h.B.I.N.@.O.@.6.g.l.l.O.&.6.:.a V.I.B.B B B B B k.S.~.~.~.~.~.",
"~.~.~.~.~.~.~.T.M.i.%.n . @.k.*.5.h.h.h.j.g.#.O.O.O.P F O.O.@.N.w.6 -.I.m m N H b b n +.<.c.~.~.~.~.",
"~.~.~.~.~.~.~.T.C.z.b.N.. 8 I.z.h.h.h.h.h.g.8.7.O.O.K x O.7.8.M.2 . 2 4 ;.e.N.C.N.N.8.7.h.d.G.~.~.~.",
"~.~.~.~.~.~.~.T.B.h.h.C.n., I.Z.j.h.h.h.h.h.h.h.g.R 3 4.z.h.8.O . M V.V.I.Z.8.b.b.h.h.h.h.b.V.T.~.~.",
"~.~.~.~.~.~.!.C.h.h.C.I.C.X u Z.I.j.h.h.h.h.h.h.8.v.q N.h.h.V.@ B.N.Z.I.Z.h.h.h.h.h.h.Z.h.h.B.T.~.~.",
"~.~.~.~.~.~.I.C.h.h.B.I.C.. q B.I.j.h.h.h.h.h.h.<.# Z.b.h.h.. @ h.h.N.h.C.C.h.h.h.h.h.j.h.h.B.J.~.~.",
"~.~.~.~.~.S.Z.C.h.j.C.I.I.e . I I.I.h.h.h.h.h.h.. # B.h.h.h.. + h.h.h.h.h.h.h.h.h.h.h.I.C.N.I.I.S.~.",
"~.~.~.~.~.V.I.b.h.B.N.Z.I.s.. 7 s.Z.h.h.h.h.h.b.. Y B.h.h.b.. @ h.h.h.h.h.j.b.h.h.h.h.b.b.b.C.I.Z.~.",
"~.~.~.~.9.j.j.h.h.j.j.j.I.*.D . ;.I.B.h.8.b.8.Z.o Z.Z.b.b.Z.o @ h.h.h.h.B.B.j.h.h.h.h.h.h.h.j.C.I.~.",
"~.~.~.} z.h.h.h.h.h.h.+.I.#.(   O M.I.h.j.8.B.; M.Z.b.Z.Z.Z.. @ h.h.h.h.h.h.h.5.6.h.h.h.O.$.O.8.Z.n.",
"~.~.~.9.j.h.h.h.h.h.$.O.+.I.( + X   I.C.8.j.B.@ Z.8.j.b.Z.Z.. @ h.h.h.h.h.h.i.5.=.+.O.+.O.O.6.h.Z.V.",
"Y.Y.~.9.=.h.O.2.8.=.O.R R ;.* ; O X I.I.B.B.6 # Z.j.8.j.M.v.o @ h.h.=.#.@.&.h.5.O.#.+.o +.O.+.B.I.V.",
"Y.~.~.r.V.@.G 9 G F G u t p N.h.N . ( Z.n.-.a 7.B.j.8.8.&.O . 0 g.5.h.x.6.x.k.%.+.X.X.8 k.1.M.I.I.0.",
"[ ~.~.~.t.f.C 3.C C C b.b.b.h.h.8.I O V p q 2.8.h.b.5.&.@.O . O.@.7.h.5.O.i.$.x.H Z c O.k.I.I.I. .~.",
"Y.Y.Y.~.~.J.I.I.I.N.j.h.h.h.h.h.h.z.E + . M &.8.&.&.@.O.w . L O.&.h.h.h.6.%.4 6 Y *.O.O.4.I.I.c.~.~.",
"~.Y.Y.Y.~.~.R.Z.B.h.h.h.h.h.h.h.h.h.#.,.+ O L @.O.O.O.O.3 . @.O.&.h.h.> @ : d.E +.+.h.i.8.b.I.T.~.~.",
"~.~.~.~.~.~.~.T.I.N.h.h.h.C.h.h.h.+.O.O.L O . R O.O.O.c o . O.O.O.z X 1.C.8.O.O.6.h.h.h.z.I.C.T.~.~.",
"~.~.~.~.~.~.~.T.I.I.z.h.Z.h.h.7.$.O.O.O.O.v X   . O.O.c o . O.R G z 6.h.h.O.O.5.h.j.j.j.Z.V.S.~.~.~.",
"~.~.~.~.~.~.~.T.I.I.C.I.h.h.6.O.O.O...( _ ~.k . . K E w . . G . y O.O.6.h.O.h.h.7.C.I.I.V.r.~.~.Y.Y.",
"~.~.~.~.~.~.~.R.9.I.I.I.N.h.z.*.O.' ~.~.~.~.~.~ . O w O . . Q ! ` O.O.O.2.O.5.5.4.C.I.C.t.~.~.~.~.Y.",
"~.~.~.~.~.~.~.~.R.0.I.I.I.B.e.G.D.!.~.~.~.~.~.~.y.+   . . | ~.~.Q.S...O.O.O.%.N.} G.H.H.~.~.~.~.~.~.",
"~.~.~.~.~.~.~.~.!.Q.u.I.I.m.W.~.~.~.~.~.~.~.~.~.~.K.+   | ~.~.~.~.~.E.R.R.R.R.R.~.~.~.~.~.~.~.~.~.~.",
"~.~.~.~.~.~.~.~.~.~.~.~.~.~.~.~.~.~.~.~.[ ~.~.~.~.R.+ . c.~.~.~.~.~.~.~.~.~.~.~.~.~.~.~.[ ~.~.~.~.~.",
"~.~.~.~.~.~.~.~.~.~.~.~.~.~.~.~.~.~.~.[ ~.[ ~.~.~.*     A.~.~.~.~.~.~.~.~.~.~.~.~.~.~.{ ~.[ ~.~.~.~.",
"~.~.~.~.~.~.~.~.~.~.~.~.~.~.~.~.~.~.~.~.[ ~.~.~.~.= .   c.~.~.~.~.~.~.~.~.~.~.~.~.~.~.~.[ ~.~.~.~.~.",
"~.~.~.~.~.~.~.~.~.~.~.~.~.~.~.~.~.~.~.~.~.~.~.~.~ O . e L.~.~.~.~.~.~.Y.~.~.~.~.~.~.~.~.~.~.~.~.~.~.",
"Y.Y.~.~.~.~.~.~.~.~.~.~.~.~.~.~.~.~.~.~.~.~.~.g o . . Q ~.~.~.~.~.Y.~.Y.~.~.~.~.~.~.~.~.~.~.~.~.~.~.",
"~.~.~.~.~.~.~.~.~.~.~.~.~.~.~.~.~.~.~.~.~.~.f X       Q ~.~.~.~.~.Y.~.Y.~.~.~.~.~.~.~.~.~.~.~.~.~.~.",
"~.~.~.~.~.~.~.~.~.~.~.~.~.~.~.~.~.~.~.~.~.~.i . .   e ~.~.~.~.~.~.Y.~.~.~.~.~.~.~.~.~.~.~.~.~.~.~.~.",
"~.~.~.~.~.~.~.~.~.~.~.~.~.~.~.~.~.~.~.~.~.A o   . 1 ~.~.~.~.~.~.~.~.~.~.~.~.~.~.~.~.~.~.~.~.~.~.~.~.",
"~.~.~.~.~.~.~.~.~.~.~.~.~.~.~.~.~.~.~.~./ O .   . ~.~.~.~.~.~.~.~.~.~.~.~.~.~.~.~.~.~.~.~.~.~.~.~.~.",
"~.~.~.~.~.~.~.~.~.~.~.~.~.~.~.~.~.~.~.T.* o   . l ~.~.~.~.~.~.~.~.~.~.~.~.~.~.~.~.~.~.~.~.~.~.~.~.~.",
"~.~.~.~.~.~.~.~.~.~.~.~.~.~.~.~.~.~.~.f +     ] ~.~.~.~.~.~.~.~.~.~.~.~.~.~.~.~.~.~.~.~.~.~.~.~.~.~.",
"~.~.~.~.~.~.~.~.~.~.~.~.~.~.~.~.~.~.!.+ . . . R.~.~.~.~.~.~.!.~.~.~.~.~.~.~.~.~.~.~.~.~.~.~.~.~.~.~.",
"~.~.~.~.~.~.~.~.~.~.~.~.~.~.~.~.~.~.- . . . A.~.~.~.~.~.~.~.~.~.~.~.~.~.~.~.~.~.~.~.~.~.~.~.~.~.~.~.",
"~.~.~.~.~.~.~.~.~.~.~.~.~.~.~.~.~.Q..       A.~.~.~.~.~.~.~.~.~.~.~.~.~.~.~.~.~.~.~.~.~.~.~.~.~.~.~.",
"~.~.~.~.~.~.~.~.~.~.~.~.~.~.~.T.P.; . . . . F.~.~.~.~.~.~.~.~.~.~.~.~.~.~.~.~.~.~.~.~.~.~.~.~.~.~.~.",
"~.~.~.~.~.~.~.~.~.~.~.~.~./ / i X . .   . X k !.~.~.~.~.~.~.~.~.~.~.~.~.~.~.~.~.~.~.~.~.~.~.~.~.~.~.",
"~.~.~.~.~.~.~.~.~.~.~.h s X . . . . . . . .   R.~.~.~.~.~.~.~.~.~.~.~.~.~.~.~.~.~.~.~.~.~.~.~.~.~.~.",
"~.~.~.~.~.~.~.~.~.W &     % T.j | L.. . . .   , Y.~.~.~.~.~.~.~.~.~.~.~.~.~.~.~.~.~.~.~.~.~.~.~.~.~.",
"~.~.~.~.~.~.~.~.~.~.Q.!.!.~.~.~.~.~.Q.!.!.!.e   X ~.~.~.~.~.~.~.~.~.~.~.~.~.~.~.~.~.~.~.~.~.~.~.~.~.",
"~.~.~.Y.~.~.~.~.~.~.~.~.~.~.~.~.~.~.~.~.Y.~.~.Y.Y.~.~.~.~.~.~.~.~.~.~.Y.~.~.~.~.~.~.~.~.~.~.~.~.~.~."
};
