/* XPM */
static char *_6a3f0791b9e4800d767c60330ca41f3dNJx0H3LMKuKEs8o[] = {
/* columns rows colors chars-per-pixel */
"51 50 47 1 ",
"  c #201207",
". c #5D8443",
"X c #5D8344",
"o c #5F8545",
"O c #608645",
"+ c #628847",
"@ c #638947",
"# c #648947",
"$ c #648B47",
"% c #678E46",
"& c #658B48",
"* c #678E48",
"= c #698E4A",
"- c #6A8F4A",
"; c #699149",
": c #6B9349",
"> c #6B904B",
", c #6E9749",
"< c #6D964A",
"1 c #6F974B",
"2 c #6E934C",
"3 c #6F934C",
"4 c #6F944C",
"5 c #70954C",
"6 c #70954D",
"7 c #70964D",
"8 c #72994C",
"9 c #72994D",
"0 c #73994E",
"q c #749A4E",
"w c #749C4D",
"e c #759C4F",
"r c #779E4F",
"t c #799F4F",
"y c #799F50",
"u c #77A04E",
"i c #7AA04F",
"p c #79A050",
"a c #7AA050",
"s c #7BA350",
"d c #7CA350",
"f c #7CA450",
"g c #7FA751",
"h c #80A852",
"j c #82AA52",
"k c #84AC53",
"l c #F9F7F1",
/* pixels */
"2222222222222222222222222222222225yhe+*222222222222",
"2222222222222222222222222222222229af,XO222222222222",
"222222222222222222222222222222229afa;@=222222222222",
"222222222222222222222222222222229ad4442222222222222",
"222222222222222222222222222222224942222222222222222",
"222222222222222222222222222222222244222222222222222",
"222222222222222222222222444222222222222222222222222",
"2222222222222222222222249e9422222222222222222222222",
"222222222222222222222249taa544222222222222222222222",
"222222222222222222222224eie444222222222222222222222",
"222222222222222222222222494222222222222222222222222",
"222222222222222222222222444222222222222222222222222",
"222222422222222222222222222222224222222222222222222",
"224422442222222222222222222222224422222222222222222",
"225559542222222222222222222222224495222222222222222",
"22qaaae422222222222222222l2222224raa422222222222222",
"225raay4222>222222222222lll222225qyy9522222-2222224",
"22220ayr2-&&*22222222222lll2222225yyy92222;&&=22224",
"22229rr05*XX+22244222222l l2222222qrq5222;+Xo*22249",
"222222222-+X*=229a9;=2222 2222222222555222=Oo-2249s",
"2222222222-*22225ai<$;222 2222222222222-222--22249f",
"22222222222222229491@*222 2222222222222222222252454",
"222222222222424raa1**=422 2222222222222522222225asp",
"222222222222444ajjw;;4222 222222222222522222;25qjks",
"224222222222224ry94222222 2222222222222522222229rr9",
"5595222222222222424222222 2222222222225542222222242",
"rffa2>2222222222222222222 2222222222245q95222222222",
"9akf4*>222222222222222222 222222222224qdaq222222222",
"15i91%+222222222222222222 2222>>2222459aa9442222222",
"222qu;+;22222222222222222 2222*+*;22245444222222222",
"229fq==222222222242222222 224=+XX>22222222222222222",
"229e1=;222222222244494422 224>;X+-22222222222222222",
"2222222222222222447rar744 22222*-222222222222222422",
"222222222222222244rrar422 2222222222222222222222444",
"22222222222222220raar022lll22222222222222222222229a",
"22222222222222224rrr0422lll22222222222222222222229w",
"222222222222222222222222l2l222222222222222222222222",
"222222222222222222222222222222222222222222222222222",
"222222222222222222222244442222222222222222222222222",
"2222222222222222222222440r0422222222222222222222222",
"222222222222222222222244yaa522222222222222222222222",
"2222222222222222222222449ay522222222222222222222222",
"222222222222222222222222595222222222222222222222222",
"222222222222222222222222442222222222222222222222222",
"222222222222222222222222222222222422222222222222222",
"222222222222222222222222222222224422222222222222222",
"22222222222222222244224222222225ee22222222222222222",
"22222222222222224445544222222259sa2*>22222222222222",
"2222222222222222225yye5522222225ps9+%22222222222222",
"222222222222222251qyyt2525222229ss1X*22222222222222"
};
