/* XPM */
static char *c01bf588f00148a6aa15a8cbede250d73TPPTKL3fFx5DNUJ[] = {
/* columns rows colors chars-per-pixel */
"50 50 4 1 ",
"  c #6E924D",
". c #87B055",
"X c #4D733E",
"o c white",
/* pixels */
"                                                  ",
"                       .                          ",
"                      ..                          ",
"                   .  ..          .               ",
"                   ..X.           .               ",
"                   X..X         . .               ",
"                    XX          . .               ",
"                                .                 ",
"                                                  ",
"                                                  ",
"                               X                  ",
"                              X X                 ",
"                               X                  ",
"                                                  ",
"                                                  ",
"                          .                       ",
"                          ..                      ",
"               .          ..  .                   ",
"               .           .X..                   ",
" .             . .         X..X                   ",
" .             . .          XX                    ",
" .               .                                ",
"                                                  ",
"                                                  ",
"         .                               .        ",
"        . .                             . .       ",
"         .                               .        ",
"                                                  ",
"                                                  ",
"                                                  ",
"                   X                              ",
"                  X X                             ",
". ..               X                              ",
"...                               .           ..  ",
"X.X                             . .            .. ",
"XX                              . .             ..",
"                                .               X.",
"                                                XX",
"                      .                           ",
"                     . .                          ",
"                      .                           ",
"                                                  ",
"                               X                  ",
"                              X X                 ",
"                               X                  ",
"                                                  ",
"                                                  ",
"                          .                       ",
"                          ..                      ",
"               .          ..  .                   "
};
