/* XPM */
static char *cfa967b65f584dd788ca929d750dff0cnY8befbYs5g8smhS[] = {
/* columns rows colors chars-per-pixel */
"50 50 8 1 ",
"  c #6E924D",
". c #87B055",
"X c #4D733E",
"o c #595652",
"O c #43403E",
"+ c #696A6A",
"@ c #847E87",
"# c white",
/* pixels */
"      ..                              ..          ",
"   .  ..          .                .  ..          ",
"   ..X.           .                ..X.           ",
"    ..X         . .                X..X        .. ",
"     X          . .                 XX        ..  ",
"                .                            X.X  ",
"                                              X...",
"                                   XXXX         ..",
"        XXXXXX      XXXXXXXXXXXXXXXoooOXXX        ",
"        XoooooXXX XXOOOooooooooooo++++oooX        ",
"..      Xo@++++oOXOoooo+++++++++++++@@@@oX        ",
"...X   XOo@@@@++oOo++++@@@@@@@@@@@@@@@@+oX        ",
"  X.X  Xo+@@@@@++oo+++@@@@@@@@@@@@@@@@@+oX        ",
"  ..X  Xo+@@@@@++oo++@@@@@@@++++++@@@@@+oX        ",
" ..X   Xo++@@@@+ooOo++@@@@@@@@++@@@@@@++X         ",
"        X++@@@@@oOOOoo++++@@@@@@@@@++++oX         ",
"        Xo+@@+@@+ooooOoooooo++++++oo++oOX   ...   ",
"        Xo+@@+@@+o+oooooooOOooooooOoooOX          ",
"        Xo+@@++@+oO+o+++++ooooOO+oOOoooOX    .... ",
"        Xo+@@++@+oOo++@@@@@+++o+ooOo+++oX         ",
"        Xo+@@+@@+oo++@@@@@@@+++oooo++++oOX        ",
"        Xo+@@+@@+oo+++@@@@@@+@++oOo+@++oOX        ",
"        Xo+@@@@@oOo+@@+@@@@+@@@+oo+@@@+oOX        ",
"        Xo+@@@@@oOo@@@@++++@@@@+oo+@@@@+oX        ",
"        Xo+@@@@+oo+@@@@+oo+@@@@+oo+@@@@+oX        ",
"        Xo+@@@@+oo+@@@@+oo+@@@@+oo+@@@@+oX        ",
"        Xo+@@@@+oo+@@@@++++@@@@oOo@@@@@+oX        ",
"        XOo+@@@+oo+@@@@@@@@@@@+oOo@@@@@+oX        ",
"        XOo++@+oOo++@@@@@@@@@++oo+@@+@@+oX        ",
"        XOo++++oooo+++@@@@@@@++oo+@@+@@+oX        ",
"         Xo+++oOoo+++++@@@@@+++Oo+@++@@+oX        ",
" ....    XOoooOOo++Ooooo+++++o++o+@++@@+oX        ",
"          XOoooOo+ooooOOooooooo+++@@+@@+oX        ",
"   ...   XOo++ooO+++++ooooooOooooO@@+@@+oX        ",
"         Xo++++o@@@@@@@@++++ooOOOoo@@@@++X        ",
"         X++@@+@@@++@@@@@@@@++oOoo++@@@++oX   X.. ",
"        Xo+@@@@@++++++@@@@@@@++oo++@@@@@+oX  X..  ",
"        Xo+@@@@@@@@@@@@@@@@@+++oo++@@@@@+oX  X.X  ",
"        Xo+@@@@@@@@@@@@@@@@++++oOo++@@@@oOX   X...",
"        Xo+@@@+++++++++++++ooooOXOo+++++oX      ..",
"        Xooo++++oooooooooooOOOXX XXXoooooX        ",
"        XXXOoooXXXXXXXXXXXXXXX      XXXXXX        ",
"..         XXXX                                   ",
"...X                                              ",
"  X.X                            .                ",
"  ..X       XX                 . .          XX    ",
" ..X       X..X                . .         X..X   ",
"           .X..                .           .X..   ",
"          ..  .                .          ..  .   ",
"          ..                              ..      "
};
