/* XPM */
static char *_db0d382311742ccd91e2ed6618ae66alPhzR6ZiVxDoIIEo[] = {
/* columns rows colors chars-per-pixel */
"50 50 80 1 ",
"  c black",
". c #010000",
"X c #000100",
"o c #010100",
"O c #000002",
"+ c #000105",
"@ c #010204",
"# c #020204",
"$ c #020106",
"% c #010206",
"& c #000306",
"* c #010207",
"= c #020307",
"- c #040710",
"; c #040612",
": c #06141F",
"> c #051320",
", c #071321",
"< c #051222",
"1 c #061323",
"2 c #041421",
"3 c #061421",
"4 c #071522",
"5 c #071424",
"6 c #182C37",
"7 c #162C39",
"8 c #182B39",
"9 c #182B3A",
"0 c #192D38",
"q c #192C3A",
"w c #192C3B",
"e c #1A2C3A",
"r c #4C733C",
"t c #4E733D",
"y c #4D743D",
"u c #4C753D",
"i c #4C743F",
"p c #4E753E",
"a c #50733D",
"s c #6D934A",
"d c #6F934B",
"f c #6C944B",
"g c #6E944B",
"h c #6B934C",
"j c #6D924C",
"k c #6E924C",
"l c #6E934D",
"z c #6F934D",
"x c #6F924E",
"c c #6E934E",
"v c #6C944D",
"b c #6F954C",
"n c #6C944E",
"m c #6F944E",
"M c #6F944F",
"N c #87B052",
"B c #86B253",
"V c #87B354",
"C c #88B151",
"Z c #88B153",
"A c #89B252",
"S c #88B155",
"D c #89B254",
"F c #542B89",
"G c #9E4FF6",
"H c #9F50F7",
"J c #9F50F9",
"K c #A150F7",
"L c #A051F8",
"P c #A251F8",
"I c #DD8BF7",
"U c #DE8CF8",
"Y c #F7CEF6",
"T c #F8CEF4",
"R c #F8CFF7",
"E c #F9CFF7",
"W c #F8CFF9",
"Q c #F8D0F5",
"! c #F9D1F6",
"~ c #F9D0F8",
/* pixels */
"lllllllllllllllllllldlllllllllllllllllllllllllllll",
"llllllllllllllllllllllllllllllllllllMlllllllllllll",
"lllllllllllllllllllllllZllllllllllcllMllllllllllll",
"llllllllllllllllldllllZZllllllllllclclllllllllllll",
"llllllllllllllllllMDllBNllllllllllDllbllllllllllll",
"lllllllllllllllllllBDrDlllllllllllNlhlllllllllllll",
"lllllllllllllllllllrZNrlllllllllNlNlllllllllllllll",
"lllllllllllllllllbllrpllllllllllSlBlllblllllllllll",
"lllllllllllllllllllllllllMlllMMdNlllllllllllllllll",
"llllllllllllllllllllllllMlllllllllllllllllllllllll",
"lllllllllllllllllllllllldllllllllllbldllllllllllll",
"llllllllllllllllllllllllllllll+rlll+llllllllllllll",
"llllllllllllllllllllllllllllMl<<3lg+3bllllllllllll",
"llllllllllllllllllllllllllllMdl033ll;<llllllllllll",
"llllllllllllllllllllllllllbllbll83ll;3llllllllllll",
"llllllllllllllllllllllllllllllll8:l:-3llllllllllll",
"lllllllllhllblllllllll<333<083ll338<5gllllllllllll",
"lllllllllvlllllvlll3330<800<883+<:883dllllllllllll",
"lMlllllllblgldlNll339:933330380+33K8Hbllllllllllll",
"llblllcllllllvbZb3993333888<833+33883lhlllllllllll",
"lDllllllllbllllZ2933vglM800375+3+566llblllllllllll",
"lBlllllllllllb<7:<lllllll<8<3=3=5+dMMlllllllllllll",
"lDllllllllllvH0<33llllll88<00+3333llMdglllllllllll",
"lllllllllllJRR983ghgllll3<03+5+333Xll+<lllllllllll",
"llllllllllLIRGWKllddMlll095+dbl<5+XX+X<dlbllllllll",
"llllllchlHIRGRRllldllllKJL85Fblb+X=##XlllZllllllll",
"lllllllbGUYJQllllllldlM+++LF+3lldl++XdllBlNlllblll",
"lllllllJI~HRlllllllll8+333+=++2<+MMMMMdllZllllllll",
"llldllJIYHQlllllllld8w3<3+<=53:3++MMlllllMllllllll",
"lllllJIRJRgbllllllhl0+=,3+<=3353X+++llllllldllllll",
"llllLIYHYllllllllcll+=13==3bl33XXXX+3bllgllllddlll",
"llllIQQRllbblhllllb++388bMMllllXXXXFJlllllllllllll",
"lllhJRRvllllllvldl<:+68<dlllllll+=XXFdlldlllllllll",
"NhDBRGlvlvllllvlM=KFX<,lllllllll++X+llllhdllllllll",
"BNZdllllllllllllM=F++lllllllllllMXXlllllllllllBDll",
"pDrldlllllvllbll++=lMMMdllllllllZ+NMllvllblllllNDl",
"pulllllllllllll<<+lMllllllllllllZXNbllllllblllllDD",
"llllllllblllll<0lllllldlllllllllDX+lllllllllllllrD",
"llllllllllllgl0+llllllllllllllllMlllllflllllllllrr",
"llllllllllllll<1llllllSllllllllllldlllblclllllllll",
"lllllllllllllllllllllBlSllllllllllllllllllllllllll",
"llllllllllllllllllllllBlllllllvhllllllllllllllllll",
"llllllllllllllllllllllllllllllblllllllllllllllllll",
"lllllllllllllllllllllllllllllllpllllllllllllllllll",
"lllllllllllllllllllllllllvllllplrlllllllllllllllll",
"lllllllllllllllllllllglglllllllrllllllllllllllllll",
"llllllllllllllllllllbllgllllllllllllclllllllllllll",
"llllllllllllllllllllllllllllllllMlclllllllllllllll",
"llllllllllllllllllllllllllDlllllllllllllllllllllll",
"llllllllllllllllllllllllllDBllllllllllllllllllllll"
};
