/* XPM */
static char *_158d7c3245449a1b44c61d614e6b13bp0kFXnGKgizNw17F[] = {
/* columns rows colors chars-per-pixel */
"50 50 26 1 ",
"  c black",
". c #1A0A01",
"X c #241103",
"o c #3E2006",
"O c #1A3C21",
"+ c #41150B",
"@ c #612517",
"# c #195413",
"$ c #1B6413",
"% c #28791F",
"& c #76451B",
"* c #4C743C",
"= c #567930",
"- c #376A41",
"; c #945F30",
": c #AB6D37",
"> c #6E934C",
", c #5C9967",
"< c #94A21E",
"1 c #88B154",
"2 c #A88261",
"3 c #E0A97C",
"4 c #BAB6AB",
"5 c #C8A283",
"6 c #F3D1B4",
"7 c #F9F7F1",
/* pixels */
">>>>>>>>>>>>>>>>>>>>>>>>>>>>>>>>>>>>>>>>>>>>>>>>>>",
">>>>>>>>>>>>>>>>>>>>>>>1>>>>>>>>>>>>>>>>>>>>>>>>>>",
">>>>>>>>>>>>>>>>>>>>>>11>>>>>>>>>>>>>>>>>>>>>>>>>>",
">>>>>>>>>>>>>>>>>>>1>>11>>>>>>>>>>1>>>>>>>>>>>>>>>",
">>>>>>>>>>>>>>>>>>>11*1>>>>>>>>>>>1>>>>>>>>>>>>>>>",
">>>>>>>>>>>>>>>>>>>*11*>>>>>>>>>1>1>>>>>>>>>>>>>>>",
">>>>>>>>>>>>>>>>>>>>**>>>>>>>>>>1>1>>>>>>>>>>>>>>>",
">>>>>>>>>>>>>>>>>>>>>>>>>>>>>>>>1>>>>>>>>>>>>>>>>>",
">>>>>>>>>>>>>>>>>>>>>>>>>>>>>>>>>>>>>>>>>>>>>>>>>>",
">>>>>>>>>>>>>>>>>>>>>>>>>>>>>>>>>@>>>>>>>>>>>>>>>>",
">>>>>>>>>>>>>>>>>>>>>>>>>>>>>>>*>@>>>>>>>>>>>>>>>>",
">>>>>>>>>>>>>>>>>>>>>>>>>>>7747>*@>>>>>>>>>>>>>>>>",
">>>>>>>>>>>>>>>>>>>>74>4>>774474>@@>>>>>>>>>>>>>>>",
">>>>>>>>>>>>>>>>>>>>44747>7473337=@@@>>>>>>>>>>>>>",
">>>>>>>>>>>>>>>>>>>>>4447>7746 64=>@@@>>>>>>>>>>>>",
">>>>>>>>>>>>>>>>>>>>>o.X>77476667=>>>@@@>>>>>>>>>>",
">>>>>>>>>>>>>>>>>>>>><<<744445664=>>>@@@>>>>>>>>>>",
">>>>>>>>>>>>>>>1>>>>>-667---45564=>>>@@@>>>>>>>>>>",
">>>>>>>>>>>>>>>1>>>>66665---47144=>>>@@@>>>>>>>>>>",
">1>>>>>>>>>>>>>1>1>666555----77>4=>>++@@>>>>>>>>>>",
">1>>>>>>>>>>>>>1>%666555,,,,,47>7=>>++++>>>>>>>>>>",
">1>>>>>>>>>>>>>>%%66---,,,,,,,7>>=>>++++>>>>>>>>>>",
">>>>>>>>>>>>>>>%%%>>----,,,,,,>>>=>>++++>>>>>>>>>>",
">>>>>>>>>>>>>>%%$>>>--------555>>=>>+++>>>>>>>>>>>",
">>>>>>>>>1>>>%%$>>>>----->>>>56%%=>>.>>>>1>>>>>>>>",
">>>>>>>>1>1525$>>>>>----->>>>>$$$=>>66>>1>1>>>>>>>",
">>>>>>>>>1>6252>>>>------>>>>>>>$=$566>>>1>>>>>>>>",
">>>>>>>>>>5>>>5>>>--,,,,->>>>>>>>=>>.>>>>>>>>>>>>>",
">>>>>>>>>>>>>>>>>:&&-,,,,&>>>>>>>=>>+++>>>>>>>>>>>",
">>>>>>>>>>>>>>>>:::&-,-,,,&>>>>>>=>>++++>>>>>>>>>>",
">>>>>>>>>>>>>>>::::&--,-,,&&>>>>>=>>++++>>>>>>>>>>",
">>>>>>>>>>>>>>>:::&&&-,-,,&;;>>>>=>>++++>>>>>>>>>>",
"1>11>>>>>>>>>>:::&&&O--,--&;;;>>>=>>>++@>>>>>>>>>>",
"111>>>>>>>>>>>::&&&OO---,-&&;;;>>=1>>@@@>>>>>>11>>",
"*1*>>>>>>>>>>::&&&>OO-----&&&;;;1=1>>@@@>>>>>>>11>",
"**>>>>>>>>>%%%%&>>>OO----->>%%&&1=1>>@@@>>>>>>>>11",
">>>>>>>>>>>>%%%%>>>>>----->>#%%%1=>>>@@@>>>>>>>>*1",
">>>>>>>>>>>>##%%>>>>>----->###%%%=>@@@>>>>>>>>>>**",
">>>>>>>>>>>###%%>>>>>>1>>>#####%%=@@@>>>>>>>>>>>>>",
">>>>>>>>>>>##>>>>>>>>1>1>>###>>>>@@>>>>>>>>>>>>>>>",
">>>>>>>>>>##>>>>>>>>>>1>>>##>>>>>@>>>>>>>>>>>>>>>>",
">>>>>>>>>%##>>>>>>>>>>>>>>##>>>>>@>>>>>>>>>>>>>>>>",
">>>>>>>>>%#>>>>>>>>>>>>>>%#>>>>*>@>>>>>>>>>>>>>>>>",
">>>>>>>>%%#>>>>>>>>>>>>>>%%%>>*>*>>>>>>>>>>>>>>>>>",
">>>>>>>>%%#>>>>>>>>>>>>>>>%%%>>*>>>>>>>>>>>>>>>>>>",
">>>>>>>>>>>>>>>>>>>>>>>>>>>>>>>>>>>>>>>>>>>>>>>>>>",
">>>>>>>>>>>>>>>>>>>>>>>>>>>>>>>>>>>>>>>>>>>>>>>>>>",
">>>>>>>>>>>>>>>>>>>>>>>>>>1>>>>>>>>>>>>>>>>>>>>>>>",
">>>>>>>>>>>>>>>>>>>>>>>>>>11>>>>>>>>>>>>>>>>>>>>>>",
">>>>>>>>>>>>>>>1>>>>>>>>>>11>>1>>>>>>>>>>>>>>>>>>>"
};
