/* XPM */
static char *_ec467e3e24e40bbb3ccc0aae6de2cd2eC8WS2FnGfzGb9JL[] = {
/* columns rows colors chars-per-pixel */
"50 50 144 2 ",
"   c #3D0507",
".  c #3F0A04",
"X  c #3C030A",
"o  c #3E0808",
"O  c #3F1612",
"+  c #410706",
"@  c #420C04",
"#  c #41040B",
"$  c #50070E",
"%  c #540B0D",
"&  c #5A0E0E",
"*  c #441402",
"=  c #4C1404",
"-  c #461901",
";  c #441209",
":  c #431C0D",
">  c #511306",
",  c #570412",
"<  c #5A0314",
"1  c #500C12",
"2  c #5B0A10",
"3  c #570418",
"4  c #5E0219",
"5  c #431B15",
"6  c #4E1C15",
"7  c #551B1A",
"8  c #581A1B",
"9  c #620716",
"0  c #650B17",
"q  c #63031B",
"w  c #69021F",
"e  c #48220B",
"r  c #4A280F",
"t  c #482C16",
"y  c #442219",
"u  c #4A2F1B",
"i  c #5A201C",
"p  c #503816",
"a  c #573F1B",
"s  c #6B0221",
"d  c #720A24",
"f  c #651C25",
"g  c #6C1C29",
"h  c #791521",
"j  c #4F2D21",
"k  c #4D3D24",
"l  c #573F25",
"z  c #5F3328",
"x  c #662C2A",
"c  c #514227",
"v  c #5C4526",
"b  c #5C5C2A",
"n  c #665134",
"m  c #615B39",
"M  c #496535",
"N  c #5B6134",
"B  c #5E6739",
"V  c #4D743D",
"C  c #676336",
"Z  c #616B39",
"A  c #63763D",
"S  c #687D3E",
"D  c #7F6745",
"F  c #7C6D46",
"G  c #647940",
"H  c #6F7E47",
"J  c #7B7346",
"K  c #7C7B42",
"L  c #7A7248",
"P  c #767C49",
"I  c #800D2C",
"U  c #951335",
"Y  c #9B1435",
"T  c #931837",
"R  c #9C1C35",
"E  c #961338",
"W  c #9D153A",
"Q  c #9D1C3C",
"!  c #A41636",
"~  c #AA1735",
"^  c #A41935",
"/  c #AB1835",
"(  c #A3173A",
")  c #A91739",
"_  c #A3193A",
"`  c #AB1839",
"'  c #B41A37",
"]  c #BD1B37",
"[  c #B31A3A",
"{  c #BC1B39",
"}  c #9A223D",
"|  c #962B3B",
" . c #9C2B3E",
".. c #8B393D",
"X. c #96333F",
"o. c #99303E",
"O. c #953D3E",
"+. c #993E3C",
"@. c #A12B37",
"#. c #A0233B",
"$. c #A12A3B",
"%. c #B4233D",
"&. c #BE243B",
"*. c #A6343E",
"=. c #AC3E3D",
"-. c #B4373D",
";. c #B2393E",
":. c #C31D37",
">. c #C61E39",
",. c #C81E39",
"<. c #C4223A",
"1. c #C02D3D",
"2. c #8D533F",
"3. c #A5413F",
"4. c #AB443F",
"5. c #963540",
"6. c #913C41",
"7. c #8E4341",
"8. c #934A41",
"9. c #865344",
"0. c #885746",
"q. c #805D41",
"w. c #895944",
"e. c #9E5544",
"r. c #925945",
"t. c #985C44",
"y. c #A44E41",
"u. c #846245",
"i. c #8F6444",
"p. c #8C6D46",
"a. c #946345",
"s. c #847247",
"d. c #887147",
"f. c #698343",
"g. c #6B8946",
"h. c #6D8B49",
"j. c #728647",
"k. c #73874A",
"l. c #728C4B",
"z. c #6E934D",
"x. c #70914C",
"c. c #8AA352",
"v. c #86B252",
"b. c #88B153",
/* pixels */
"z.z.z.z.z.z.z.z.z.z.z.z.z.z.z.z.z.z.z.z.z.l.L F L z.z.z.z.z.z.z.z.z.z.z.z.z.z.z.z.z.z.z.z.z.z.z.z.z.",
"z.z.z.z.z.z.z.z.z.z.z.z.z.z.z.z.z.z.z.z.h.0.} Q 5.q.x.x.z.z.z.z.z.z.z.z.z.z.z.z.z.z.z.z.z.z.z.z.z.z.",
"z.z.z.z.z.z.z.z.z.z.z.z.z.z.z.z.z.z.z.l.0.Q W W W W 6.F z.z.z.z.z.z.z.z.z.z.z.z.z.z.z.z.z.z.z.z.z.z.",
"z.z.z.z.z.z.z.z.z.z.z.z.z.z.z.z.z.z.p.-.&.` _ ( ( ( _ 5.L z.z.z.z.z.z.z.z.z.z.z.z.z.z.z.z.z.z.z.z.z.",
"z.z.z.z.z.z.z.z.z.z.z.z.z.z.z.z.z.a.1.<.,.,.,.[ ( ` >.:.*.l.z.z.z.b.z.z.z.z.z.z.z.z.z.z.z.z.z.z.z.z.",
"z.z.z.z.z.z.z.z.z.z.z.z.z.z.z.z.z.;.,.,.<.,.:.{ ` ` { >.&.u.z.z.z.b.z.z.z.z.z.z.z.z.z.z.z.z.z.z.z.z.",
"z.z.z.z.z.z.z.z.z.z.z.z.z.z.z.x.t.<.<.,.,.:.[ / ) ~ { >.>.%.u.c.z.b.z.z.z.z.z.z.z.z.z.z.z.z.z.z.z.z.",
"z.z.z.z.z.z.z.z.z.z.z.z.z.z.x.r.<.,.<.,.,.,.' / ~ [ >.>.>.>.Q 5.J v.z.z.z.z.z.z.z.z.z.z.z.z.z.z.z.z.",
"z.z.z.z.z.z.z.z.z.z.z.z.z.x.0.%.,.,.,.,.>.] / / ) ` ,.>.>./ U ! $.s.z.z.z.z.z.z.z.z.z.z.z.z.z.z.z.z.",
"z.z.z.z.z.z.z.z.z.z.z.z.z.k. .,.,.<.,.,.' / / / ( / >.,.{ Y U ! / @.s.z.z.z.z.z.z.z.z.z.z.z.z.z.z.z.",
"z.z.z.z.z.z.z.z.z.z.z.z.z.P  .,.<.>.{ / ) / ` / ( [ >.:.' ! ! ~ / / $.J z.z.z.z.z.z.z.z.z.z.z.z.z.z.",
"z.z.z.z.z.z.z.z.z.z.z.z.z.6.` { :.' / ~ ( ! / ~ / ) ` E Y ! ~ ~ ~ / / @.J z.z.z.z.z.z.z.z.z.z.z.z.z.",
"z.z.z.z.z.z.z.z.z.z.z.z.z.6.W _ ) ) ) ) [ ` ) ~ ) W U U Y ! / / / / / / +.x.z.z.z.z.z.z.z.z.z.z.z.z.",
"z.z.z.z.z.z.x.z.z.z.z.z.l.6._ _ ( ( ` { ,.>.[ _ _ E Y / ! / / / / / / / O.l.z.z.z.z.z.z.z.z.z.z.z.z.",
"z.z.z.z.z.z.z.z.z.z.z.l.e.<.:.{ [ { >.,.,.>.:.[ ( U Y / / / / / / / / / +.x.z.z.z.z.z.z.z.z.z.z.z.z.",
"z.z.z.z.z.z.z.z.z.z.z.d.<.,.>.>.,.,.,.,.,.<.>.,.( U ! ~ ~ / / / / / / / +.x.z.z.z.z.z.z.z.z.z.z.z.z.",
"z.z.z.z.z.z.z.z.z.z.z.p.<.,.,.,.,.<.,.,.<.,.] { Y U _ / / / / / / / / / O.z.z.z.z.z.z.z.z.z.z.z.z.z.",
"z.z.z.z.x.z.z.z.z.z.z.d.:.>.,.>.,.:.,.,.:.' ' / ( U W ! / / / / / / ! ( 6.z.z.z.z.z.z.z.z.z.z.z.z.z.",
"x.z.z.z.z.z.z.z.z.z.z.s.' ] <.:.:.:.] [ / / / ( W U U Y ( ~ / ) ~ W Y U 9.z.z.z.z.z.z.z.z.z.z.z.z.z.",
"z.z.z.z.z.z.z.z.z.z.l.8./ ' ' / / / / / / / ( W E U E U U W ( W W U U | j.z.z.z.z.z.z.z.z.z.z.z.z.z.",
"b.z.z.z.z.z.z.z.z.z.z.2./ ' / / / / ) ) ) ( W W Y U Y ! Y U Y U Y U W @.k.z.z.z.z.z.z.z.z.z.z.z.z.z.",
"b.z.z.z.z.z.z.z.z.z.z.J } / ! _ ( ( ) [ { :.:.] ] ! Y ! / ! ( E U E ( +.l.z.z.z.z.z.z.z.z.z.z.z.z.z.",
"b.z.z.z.z.z.z.z.z.z.z.z.9.( ( ( W ) :.,.,.,.,.,.,.{ U U ~ / / ! Y ! R J z.z.z.z.z.z.z.z.z.z.z.z.z.z.",
"z.z.z.z.z.z.z.z.z.z.z.z.J  .[ ' [ ,.<.,.,.<.,.{ [ ) U ! ~ ~ / / / _ Q J z.z.z.z.z.z.z.z.z.z.z.z.z.z.",
"z.z.z.z.z.z.z.z.z.z.z.z.z.=.:.,.,.,.<.,.,.,.{ ( W E Y ~ ~ ~ / / _ } 0.l.z.z.z.z.z.z.z.z.z.z.z.z.z.z.",
"z.z.z.z.z.z.z.z.v.z.z.z.z.=.<.<.:.,.,.,.,.:.) ( U U Y ~ ~ / / / 5.P x.z.z.z.z.z.b.z.z.z.z.z.z.z.z.z.",
"z.z.z.z.z.z.z.b.z.v.z.z.z.a.<.<.,.<.,.,.,./ ( ~ U Y / ~ / ~ ~ ^ 5.l.z.z.z.z.z.v.z.b.z.z.z.z.z.z.z.z.",
"z.z.z.z.z.z.z.z.v.z.z.z.z.z.s.4.<.,.,.{ :.( Y Y U ( / / / ~ / #.s.z.z.z.z.z.z.z.b.z.z.z.z.z.z.z.z.z.",
"z.z.z.z.z.z.z.z.z.z.z.z.z.z.z.z.4.] ' ! W U U U U U W / / / ~ u.z.z.z.z.z.z.z.z.z.z.z.z.z.z.z.z.z.z.",
"z.z.z.z.z.z.z.z.z.z.z.z.z.z.z.z.i.R Y U U U E U h U ! / / ! o.P z.z.z.z.z.z.z.z.z.z.z.z.z.z.z.z.z.z.",
"z.z.z.z.z.z.z.z.z.z.z.z.z.z.z.z.z.2.T Y U E E U 4 d ( ) ~  .K z.z.z.z.z.z.z.z.z.z.z.z.z.z.z.z.z.z.z.",
"z.z.z.z.z.z.z.z.z.z.z.z.z.z.z.z.z.x.m J ..U U h @ # d R X.J z.z.z.z.z.z.z.z.z.z.z.z.z.z.z.z.z.z.z.z.",
"z.z.z.z.z.z.z.z.z.z.z.z.z.z.z.z.z.V z.V H 8 0 & +   # n k.z.z.z.z.z.z.z.z.z.z.z.z.z.z.z.z.z.z.z.z.z.",
"z.b.b.z.z.z.z.z.z.z.z.z.z.z.z.z.z.z.V z.g.7 w 9 % + 5 A z.z.z.z.z.z.z.z.z.z.z.z.z.z.z.z.z.z.z.z.z.z.",
"v.b.z.z.z.z.z.z.z.z.z.z.z.z.z.z.z.z.z.z.g.7 4 < ,   c x.z.z.z.z.z.b.z.z.z.z.z.z.z.z.z.z.z.b.v.z.z.z.",
"b.V z.z.z.z.z.z.z.z.z.z.z.z.z.z.z.z.z.z.g.6 , 4 % X c z.z.z.z.b.z.b.z.z.z.z.z.z.z.z.z.z.z.z.b.b.z.b.",
"V z.z.z.z.z.z.z.z.z.z.z.z.z.z.z.z.z.z.z.g.7 4 4 *   c z.z.z.z.v.z.b.z.z.z.z.z.z.z.z.z.z.z.z.z.v.b.b.",
"z.z.z.z.z.z.z.z.z.z.z.z.z.z.z.z.z.z.z.z.h.g s q % + y S z.z.z.v.z.z.z.z.z.z.z.z.z.z.z.z.x.z.z.V b.V ",
"z.z.z.z.z.z.z.z.z.z.z.z.z.z.z.z.z.z.z.z.h.f < < % +   N z.z.z.z.z.z.z.z.z.z.z.z.z.z.z.z.z.z.z.V V z.",
"z.z.z.z.z.z.z.z.z.z.z.z.z.z.z.z.z.z.z.z.g.8 4 0 = @   N z.z.z.z.z.z.z.z.z.z.z.z.z.z.z.z.z.z.z.z.z.z.",
"z.z.z.z.z.z.z.z.z.z.z.z.z.z.z.z.z.z.z.z.K 1 < , - . . k g.z.z.z.z.z.z.z.z.z.z.z.z.z.z.z.z.z.z.z.z.z.",
"z.z.z.z.z.z.z.z.z.z.z.z.z.z.z.z.z.z.z.z.z 4 q w > - . . c h.z.z.z.z.z.z.z.z.z.z.z.z.z.z.z.z.z.z.z.z.",
"z.z.z.z.z.z.z.z.z.z.z.z.z.z.z.z.z.z.z.g.x 0 2 , - * @ . 5 g.z.z.z.z.z.z.z.z.z.z.z.z.z.z.z.z.z.z.z.z.",
"z.z.z.z.z.z.z.z.z.z.z.z.z.z.z.z.z.z.g.c q 3 + # * * @ * O N M z.z.z.z.z.z.z.z.z.z.z.z.z.z.z.z.z.z.z.",
"z.z.z.z.z.z.z.z.z.z.z.z.z.z.z.z.z.h.v $ 1 j o . - : c t . X u M z.z.z.z.z.z.z.z.z.z.z.z.z.z.z.z.z.z.",
"z.z.z.z.z.z.z.z.z.z.z.z.z.z.z.z.z.S a C B f.B p * u h.S b e ; Z z.z.z.z.z.z.z.z.z.z.z.z.z.z.z.z.z.z.",
"z.z.z.z.z.z.z.z.z.z.z.z.z.z.z.z.z.z.f.z.z.z.z.b t A z.z.z.H G z.z.z.z.z.z.z.z.z.z.z.z.z.z.z.z.z.z.z.",
"z.z.z.z.z.z.z.z.z.z.z.z.z.z.z.z.z.z.z.z.z.z.z.z.g.z.z.z.z.z.z.z.z.z.z.z.z.z.z.z.z.z.z.z.z.z.z.z.z.z.",
"z.z.z.z.z.z.z.z.z.z.z.z.z.z.z.z.z.z.z.z.z.z.z.z.z.b.z.z.z.z.z.z.z.z.z.z.z.z.z.z.z.z.z.z.z.z.z.z.z.z.",
"z.z.z.z.z.z.z.z.z.z.z.z.z.z.z.z.z.z.z.z.z.z.z.z.z.b.b.z.z.z.z.z.z.z.z.z.z.z.z.z.z.z.z.z.z.z.z.z.z.z."
};
